<svg id="Group_68" data-name="Group 68" xmlns="http://www.w3.org/2000/svg" xmlns:xlink="http://www.w3.org/1999/xlink" width="91.12" height="89.726" viewBox="0 0 91.12 89.726">
  <defs>
    <clipPath id="clip-path">
      <path id="Path_448" data-name="Path 448" d="M541.933,86.782c0,24.777,20.4,44.863,45.56,44.863s45.56-20.086,45.56-44.863-20.4-44.863-45.56-44.863S541.933,62,541.933,86.782" transform="translate(-541.933 -41.919)" fill="none"/>
    </clipPath>
  </defs>
  <g id="Group_40" data-name="Group 40" transform="translate(0 0)" clip-path="url(#clip-path)">
    <rect id="Rectangle_41" data-name="Rectangle 41" width="144.035" height="94.553" transform="translate(-26.019 -1.982)" fill="#006029"/>
    <path id="Path_407" data-name="Path 407" d="M2062.25,727.314c.411-.136,1.275-.512,1.275-.512s-1.594-.02-1.854-2.643l-3.127,1.946a25.354,25.354,0,0,1,2.312,10.814c3.555-3.1,2.524-5.172,1.395-9.605" transform="translate(-1985.728 -691.905)" fill="#fefbfe"/>
    <path id="Path_408" data-name="Path 408" d="M1446.314,739.044a8.947,8.947,0,0,0,1.665-1.636,8.6,8.6,0,0,0,1.405-2.511,7.989,7.989,0,0,0,.266-3.213,19.7,19.7,0,0,0-1.054-4.072c.228-.076.72-.264,1.111-.417a4.765,4.765,0,0,0,4.806.8c1.444-.579,4.081-.68,4.631-.311a4,4,0,0,0-4.057-1.159s1.053-1.288.287-2.063a1.42,1.42,0,0,0-1.919-.006,1.051,1.051,0,0,0-.2,1.173,1.017,1.017,0,0,0,1.222.39,3.753,3.753,0,0,1-1.575.948,3.474,3.474,0,0,1-3.056-.207h0l-.025-.015a2.505,2.505,0,0,1-1.253-2.662l-3.677,2.3a31.22,31.22,0,0,1,2.355,9.267c-3.016,2.64-8.729,2.574-7.556-.955-3.767,4.378-.389,8.808,6.622,4.352" transform="translate(-1395.103 -691.833)" fill="#fefbfe"/>
    <path id="Path_409" data-name="Path 409" d="M1250.442,718.714v.011a50.42,50.42,0,0,0,.313,6.027v0c.009.068.017.137.026.2.889,6.7,4.207,7.028,7.159,4.643,0,0,3.019-2.257.915-4.847l-.853-1.017.218-.309c1.58.413,4.047.644,5.837-1.119a3.342,3.342,0,0,0,.53-3.989,3.9,3.9,0,0,0-1.549-1.587,3.637,3.637,0,0,0-1.112-.4c-.143-.027-.984.015-1.026-.033,0,0-.316-1.451-2.158-.363s-2.525.725-2.946-.829c0,0-1,3.678,3.157,3,0,0-1.1,2.332,1.789,2.176,0,0-1.893-1.139-.21-2.486s3.472.414,3.525,1.4c0,0-1.894-1.243-1.631,1.087,0,0,1.385-.883,1.631.363-.041,1.006-2.589,2.758-5.3,2.024-.056-.015-.113-.031-.168-.049a5.309,5.309,0,0,1-1.454-.709l0,0a7.549,7.549,0,0,1-1.1-1.126l-1.55,3.306,2.9,3.282c-2.224,1.928-2.931.858-3.252-.456-.073-.3-.127-.619-.173-.916q-.057-.331-.107-.658a37.643,37.643,0,0,1-.384-6.477c.435,0,1.373-.069,1.373-.069s-.849-.71-.214-3.27c0,0-2.234.86-4.2,1.827v.009c.01.358.018.814.013,1.345" transform="translate(-1216.413 -683.282)" fill="#fefbfe"/>
    <path id="Path_410" data-name="Path 410" d="M1947.242,821.485l1.58-3.016c-1.8.017-3.48-1.844-3.48-1.844a28.923,28.923,0,0,0-3.072,3.982c-.691,1.114.585,2.641.825,3.025,1.091,1.751,4.581,4.537,3.964,7.23,0,0,2.9-1.948,1.261-4.792-1.147-1.989-4.067-4.268-3.988-5.541a2.033,2.033,0,0,0,2.91.956" transform="translate(-1874.844 -779.999)" fill="#fefbfe"/>
    <path id="Path_411" data-name="Path 411" d="M1331.277,1058.5a1.4,1.4,0,0,0-1.168,1.151h0a1.414,1.414,0,0,0-1.627-1.15,1.4,1.4,0,0,0-1.169,1.6,1.42,1.42,0,0,0,2.8,0h0a1.414,1.414,0,0,0,1.627,1.151,1.4,1.4,0,0,0,1.169-1.6,1.415,1.415,0,0,0-1.628-1.15" transform="translate(-1289.588 -1010.425)" fill="#fefbfe"/>
    <path id="Path_412" data-name="Path 412" d="M787.054,962.453a1.4,1.4,0,0,0-1.168,1.6,1.414,1.414,0,0,0,1.627,1.15,1.4,1.4,0,0,0,1.168-1.6,1.414,1.414,0,0,0-1.627-1.15" transform="translate(-774.154 -918.916)" fill="#fefbfe"/>
    <path id="Path_413" data-name="Path 413" d="M1694.047,829.619a1.4,1.4,0,0,0-1.168,1.6,1.414,1.414,0,0,0,1.627,1.15,1.4,1.4,0,0,0,1.169-1.6,1.415,1.415,0,0,0-1.627-1.15" transform="translate(-1637.602 -792.361)" fill="#fefbfe"/>
    <path id="Path_414" data-name="Path 414" d="M1108.492,896.24c-3.651-.006-4.416,6.125.522,5.6-1,2.185-2.833,2.826-4.689,1.428-.295,4.3,7.285,5.56,7.285-2.084,0-1.439-.69-4.942-3.119-4.946" transform="translate(-1077.316 -855.851)" fill="#fefbfe"/>
    <path id="Path_415" data-name="Path 415" d="M726.133,727.589c-.286-3.088-2.91-3.642-5.309-2.657a8.279,8.279,0,0,0-.459-4.6c.411-.136,1.276-.511,1.276-.511s-1.594-.02-1.856-2.643l-3.125,1.945a16.26,16.26,0,0,1,2.135,7.078,6.306,6.306,0,0,0-1.622,2.221c-.06.14-.114.284-.162.429a3.174,3.174,0,0,1-.337-.828c0-.014-.005-.028-.009-.043a.015.015,0,0,0,0-.006l-3.37.731c.006,0,.01.011.011.015.322,1.35.506,3.884-1.58,3.846-2.254-.041-3.407-3.684-1.58-4.98a7.527,7.527,0,0,1,2.388-.906,8.781,8.781,0,0,0,2.665-1.076,4.039,4.039,0,0,0,.665-.566,3.894,3.894,0,0,0,.6-4.545,4.45,4.45,0,0,0-1.765-1.808,4.147,4.147,0,0,0-1.266-.456c-.163-.031-1.121.017-1.169-.038,0,0-.36-1.652-2.458-.413s-2.877.826-3.356-.944c0,0-1.139,4.19,3.6,3.423,0,0-1.258,2.656,2.038,2.478,0,0-2.158-1.3-.24-2.832s3.955.472,4.015,1.593c0,0-2.158-1.416-1.858,1.239,0,0,1.577-1.006,1.858.414-.469,3.155-9.8,1.425-9.519,7.056a6.223,6.223,0,0,0,1.386,3.582,5.469,5.469,0,0,0,4.116,1.981c1.62.062,4.126-.283,4.879-3.186,4.108,2,9.836-.384,9.409-5m-6.708,2.826c0-.006,0-.012,0-.017l.005,0q.015-.072.031-.142a.074.074,0,0,1,0-.012c.6-2.045,2.957-2.991,3.347-1.681,0,.016.009.032.013.047a1.4,1.4,0,0,1,.035.207c.109,1.177-1.721,1.894-3.438,1.593" transform="translate(-698.438 -684.93)" fill="#fefbfe"/>
    <path id="Path_416" data-name="Path 416" d="M1517.806,861.124l.851-2.014s-1.876-.223-2.424,2.8c-.366,1.863,1.672,1.3,1.623,1.657-.429.85-2.553,1.574-2.553,1.574,1.77.882,3.2-.808,3.347-2.871.07-.995-1.155-.173-1.688-1.084.2-.37.844-.056.844-.056" transform="translate(-1468.57 -820.473)" fill="#fefbfe"/>
    <path id="Path_417" data-name="Path 417" d="M1487.392,1057.428a.87.87,0,0,0-.291,1.061,1.112,1.112,0,0,0,.069.129,3.781,3.781,0,0,0-3.205.427c-.65.438-1.31,1.048-2.227.644a1.472,1.472,0,0,0,2.009.164c2.267-1.454,4.138-.474,4.6.319a3.432,3.432,0,0,0-.457-1.346c-.061-.1-.152-.359-.006-.432.1-.05.169.064.194.142a.534.534,0,0,0,.34-.855.736.736,0,0,0-1.026-.252" transform="translate(-1436.616 -1009.311)" fill="#fefbfe"/>
    <path id="Path_418" data-name="Path 418" d="M2099.326,848.232c.116-.152.232-.313.344-.48v0h0c.761-1.138,1.331-2.567.36-3.543l-2.271-2.249.788-1.112s-1.09.226-2.757-1.836l-1.549,3.307,4.319,4.515c-3.377,2.928-6.5,2.6-6.994-.491-2.272,3.763.746,8.887,6.282,3.518a11.659,11.659,0,0,0,.081,1.286.091.091,0,0,1,0,.036.279.279,0,0,0,0-.036c-.008-.146-.193-.244-.312-.289a.514.514,0,0,0-.512.052c-.6.454-.044,1.337.622,1.271s.674-1.055.674-1.055a1.776,1.776,0,0,0,2.143.976,2.732,2.732,0,0,1-1.219-3.867" transform="translate(-2016.441 -801.326)" fill="#fefbfe"/>
    <path id="Path_419" data-name="Path 419" d="M1636.818,738.816s-.768-2.082-2.434-.253c0,0,1.858-.441,1.666,1.388s-2.371,1.83-3.011,1.262c0,0,1.922-.379.32-1.64,0,0-.3,1.368-1.217.757-.7-.748-.472-3.116,2.08-3.5l.157-.021.016,0h0a4.674,4.674,0,0,0,2.279-.87c.239-.97.622-3.517.622-3.517a9.942,9.942,0,0,1-3.514,1.428,3.5,3.5,0,0,1-1.084-2.5c.348-1.073,2.886-1,4.4,0a5.408,5.408,0,0,0-1.521-2.513,4.513,4.513,0,0,0,3.615-1.68,9.809,9.809,0,0,1,5.589-3.323,5.862,5.862,0,0,0-5.815,1.764s.282-1.63-.771-1.939a1.408,1.408,0,0,0-1.678.916,1.055,1.055,0,0,0,.41,1.119c.351.282,1.295.037,1.276-.34,0,0,.105,2.382-5.061,2.655a.016.016,0,0,0-.007,0,4.12,4.12,0,0,0-3.752,2.806,3.151,3.151,0,0,0,.444,2.577,3.663,3.663,0,0,1-1.672-1.021l-2.46,2.383a7.334,7.334,0,0,1,1.761,2.354c-1,2.186-3.364,2.328-5.22.929-.295,4.3,8.29,7.343,7.552-1.559a12.567,12.567,0,0,0,2.592.412,2.721,2.721,0,0,0-1.257,2.431,2.919,2.919,0,0,0,2.144,2.747,3.446,3.446,0,0,0,1.925.038,3.144,3.144,0,0,0,.924-.422c.1-.071.59-.6.645-.6,0,0,1.089.694,1.538-1.073s1.089-1.955,2.306-1.261c0,0-1.666-2.839-3.78.063" transform="translate(-1570.356 -691.38)" fill="#fefbfe"/>
    <path id="Path_420" data-name="Path 420" d="M920.85,1068.062c-1.459-.286-.785-1.271-.59-1.315a1.494,1.494,0,0,0-.578-.256,1.44,1.44,0,0,0-1.519.62.939.939,0,0,0-.117.694,1.207,1.207,0,0,0,.714.723,2.573,2.573,0,0,0,.642.215c3.047.6,5.93-2.484,6.631-2.326-.911-.29-3.3,2.015-5.183,1.645" transform="translate(-899.965 -1017.958)" fill="#fefbfe"/>
    <path id="Path_421" data-name="Path 421" d="M1015.119,726.867a13.576,13.576,0,0,0,5.223,3.569l-.055-2.843c-4.107-.424-4.2-2.384-4.2-2.532,0,.372.935.6,1.28.318a1.053,1.053,0,0,0,.4-1.122,1.408,1.408,0,0,0-1.688-.9c-1.049.32-.751,1.947-.751,1.947a5.862,5.862,0,0,0-5.833-1.706,9.808,9.808,0,0,1,5.623,3.268" transform="translate(-987.047 -691.092)" fill="#fefbfe"/>
    <path id="Path_422" data-name="Path 422" d="M1228.406,1035.639s.082,3.471-2.05,3.865c0,0,3.016-.1,2.7-2.171,0,0,1.567.675,1.779-.613a2.467,2.467,0,0,1-2.427-1.08" transform="translate(-1193.496 -988.659)" fill="#fefbfe"/>
    <path id="Path_423" data-name="Path 423" d="M1037.438,792.036s.3-2.993-2.615-2.958c0,0-.018-2.158-2.086-1.984,1.8,1.436,0,3.4,0,3.4s3.765-1.063,4.7,1.547" transform="translate(-1009.172 -751.855)" fill="#fefbfe"/>
    <path id="Path_424" data-name="Path 424" d="M1229.856,1289.834c-.006.014-.017.033-.029.055s-.028.046-.045.072-.035.053-.055.082a.943.943,0,0,1-.062.08l-.081-.06-.094-.07-.1-.071-.085-.064c.013-.025.029-.054.047-.088l.061-.1c.021-.035.042-.068.064-.1s.04-.058.057-.079c.047.036.1.075.157.118s.11.082.157.118l.031.022a.047.047,0,0,0,.02.009.029.029,0,0,0,.023-.017c.011-.022.025-.047.041-.073s.032-.053.049-.079.034-.052.052-.076.034-.046.05-.066l.081.06.1.072.1.072.083.063c-.013.028-.028.059-.048.094s-.039.069-.06.1-.042.066-.063.1-.041.054-.057.074l-.065-.048-.08-.058-.085-.063c-.03-.021-.057-.041-.082-.061l-.031-.022a.042.042,0,0,0-.022-.009c-.007,0-.014.005-.021.016" transform="translate(-1196.307 -1230.465)" fill="#fefbfe"/>
    <path id="Path_425" data-name="Path 425" d="M1264.229,1276.276c-.159.047-.311.1-.458.158s-.291.122-.433.193l-.017-.015a.676.676,0,0,1,.029-.086,1.08,1.08,0,0,1,.046-.1.671.671,0,0,1,.057-.091.208.208,0,0,1,.065-.06,2.743,2.743,0,0,1,.369-.162q.21-.076.439-.143l.017.012Z" transform="translate(-1228.686 -1217.629)" fill="#fefbfe"/>
    <path id="Path_426" data-name="Path 426" d="M1255.38,1210.42l.088.066.1.073c.033.023.064.047.094.07l.078.059a1.653,1.653,0,0,1-.1.189,1.586,1.586,0,0,1-.129.179l-.179-.134-.177-.132c.013-.026.028-.056.047-.091s.039-.068.061-.1l.063-.1c.022-.031.041-.058.059-.081" transform="translate(-1220.907 -1155.177)" fill="#fefbfe"/>
    <path id="Path_427" data-name="Path 427" d="M1302.879,1193.276q-.237.071-.458.158t-.433.193l-.017-.015a.609.609,0,0,1,.029-.085c.013-.034.029-.067.047-.1a.714.714,0,0,1,.058-.091.2.2,0,0,1,.064-.059,2.762,2.762,0,0,1,.369-.162c.14-.051.286-.1.439-.143l.017.012Z" transform="translate(-1265.48 -1138.553)" fill="#fefbfe"/>
    <path id="Path_428" data-name="Path 428" d="M1220.448,1191.086a.69.69,0,0,0-.132-.136.88.88,0,0,0-.183-.111.5.5,0,0,0-.2-.046.659.659,0,0,0-.275.065,1.532,1.532,0,0,0-.284.172,3.062,3.062,0,0,0-.279.236c-.092.087-.179.175-.262.262a.662.662,0,0,0,.025-.134c.005-.055.009-.109.009-.159s0-.094-.009-.159-.015-.134-.026-.211-.022-.157-.036-.241-.027-.167-.039-.249-.024-.159-.035-.232-.019-.138-.025-.193a.119.119,0,0,0,.059-.048.5.5,0,0,0,.049-.094,1.259,1.259,0,0,0,.044-.126c.012-.047.026-.094.039-.145-.031-.026-.064-.054-.1-.08s-.067-.055-.1-.084a.593.593,0,0,1-.079-.093.247.247,0,0,1-.042-.106h-.036c-.017.035-.036.07-.055.107s-.037.074-.053.11a1.034,1.034,0,0,0-.04.1.349.349,0,0,0-.016.093.169.169,0,0,0,.019.086c.013.02.025.042.036.064a.508.508,0,0,0-.015.138,1.477,1.477,0,0,0,.019.185q.018.124.044.28c.018.1.038.212.058.326s.041.222.059.326.033.2.045.28a1.4,1.4,0,0,1,.018.184.761.761,0,0,1-.022.188.928.928,0,0,1-.046.135l-.153.163h-.24a.417.417,0,0,1-.1-.011.289.289,0,0,1-.077-.035.344.344,0,0,1-.066-.055c-.02-.022-.041-.046-.063-.074s-.043-.055-.066-.083a.416.416,0,0,0-.084-.081.427.427,0,0,0-.117-.061.491.491,0,0,0-.163-.024.715.715,0,0,0-.233.041,1.182,1.182,0,0,0-.236.111,1.535,1.535,0,0,0-.215.163,1.383,1.383,0,0,0-.179.2,1.022,1.022,0,0,0-.122.221.615.615,0,0,0-.044.225.189.189,0,0,0,.046.131.331.331,0,0,0,.116.079.656.656,0,0,0,.144.043c.052.009.1.016.14.02l.167.02a.9.9,0,0,1,.1.015.228.228,0,0,1,.051.014.022.022,0,0,1,.014.019,1.089,1.089,0,0,1-.212.146,1.818,1.818,0,0,1-.274.121,2.168,2.168,0,0,1-.3.083,1.541,1.541,0,0,1-.293.03,1.355,1.355,0,0,1-.368-.046.8.8,0,0,1-.28-.137.6.6,0,0,1-.178-.227.767.767,0,0,1-.062-.32.955.955,0,0,1,.019-.184,1.553,1.553,0,0,1,.051-.186c.022-.062.046-.122.072-.182s.055-.115.083-.168l-.081-.035c-.044.069-.088.147-.133.23a2.427,2.427,0,0,0-.121.264,2.067,2.067,0,0,0-.088.288,1.366,1.366,0,0,0-.033.3,1.282,1.282,0,0,0,.042.33.779.779,0,0,0,.147.3.733.733,0,0,0,.279.215,1.05,1.05,0,0,0,.446.083,1.925,1.925,0,0,0,.431-.048,2.236,2.236,0,0,0,.4-.129,1.936,1.936,0,0,0,.341-.189,1.238,1.238,0,0,0,.25-.229c.017-.034.033-.069.049-.105s.03-.075.042-.113.022-.077.029-.114a.5.5,0,0,0,.012-.1.243.243,0,0,0-.019-.1.177.177,0,0,0-.062-.068.333.333,0,0,0-.11-.045c-.045-.011-.1-.022-.163-.031a1.338,1.338,0,0,1-.314-.073c-.065-.027-.1-.061-.1-.1a.148.148,0,0,1,.047-.087.522.522,0,0,1,.128-.1.96.96,0,0,1,.189-.084.758.758,0,0,1,.231-.035.436.436,0,0,1,.127.016.273.273,0,0,1,.087.044.369.369,0,0,1,.066.067l.065.084.068.089a.4.4,0,0,0,.084.082.45.45,0,0,0,.126.062.639.639,0,0,0,.19.023h.026q.264,0,.531-.016a4.538,4.538,0,0,0,.522-.065,3.34,3.34,0,0,0,.5-.134,2.386,2.386,0,0,0,.464-.221.926.926,0,0,0,.123-.145,1.362,1.362,0,0,0,.192-.416.89.89,0,0,0,.03-.224.218.218,0,0,0-.05-.121m-.471.54a1.984,1.984,0,0,1-.284.116,3.371,3.371,0,0,1-.407.1,4.15,4.15,0,0,1-.547.065q.128-.115.26-.232a3.209,3.209,0,0,1,.261-.209,1.753,1.753,0,0,1,.249-.15.53.53,0,0,1,.227-.058.431.431,0,0,1,.139.023.565.565,0,0,1,.122.063.463.463,0,0,1,.1.084.41.41,0,0,1,.063.089,1.536,1.536,0,0,1-.18.108" transform="translate(-1182.685 -1134.936)" fill="#fefbfe"/>
    <path id="Path_429" data-name="Path 429" d="M1340.339,1201.448q-.237.071-.458.158c-.147.058-.291.122-.433.193l-.017-.015a.619.619,0,0,1,.028-.086c.013-.033.029-.066.047-.1a.688.688,0,0,1,.057-.091.212.212,0,0,1,.065-.06,2.876,2.876,0,0,1,.369-.162q.21-.077.439-.143l.017.013Z" transform="translate(-1301.142 -1146.339)" fill="#fefbfe"/>
    <path id="Path_430" data-name="Path 430" d="M1327.835,1223.78a.53.53,0,0,1-.048.07.255.255,0,0,1-.065.056.3.3,0,0,1-.09.038.468.468,0,0,1-.122.014.45.45,0,0,1-.17-.032.425.425,0,0,1-.141-.091.445.445,0,0,1-.1-.139.418.418,0,0,1-.036-.175,1.027,1.027,0,0,1,.051-.318,1.309,1.309,0,0,1,.126-.277.853.853,0,0,1,.161-.2.254.254,0,0,1,.158-.074.32.32,0,0,1,.213.081.655.655,0,0,1,.159.223,1.4,1.4,0,0,1,.1.328,2.193,2.193,0,0,1,.035.4,2.23,2.23,0,0,1-.037.4,2.308,2.308,0,0,1-.1.384,1.985,1.985,0,0,1-.161.344,1.454,1.454,0,0,1-.209.278.937.937,0,0,1-.248.186.612.612,0,0,1-.28.068,1.252,1.252,0,0,1-.183-.015,1.458,1.458,0,0,1-.208-.048,1.711,1.711,0,0,1-.226-.088,2.041,2.041,0,0,1-.239-.137l.028-.067a1.507,1.507,0,0,0,.208.053,1.135,1.135,0,0,0,.193.017.906.906,0,0,0,.409-.1,1.565,1.565,0,0,0,.373-.266,1.843,1.843,0,0,0,.3-.37,1.7,1.7,0,0,0,.189-.417.34.34,0,0,0-.024-.13Zm-.162-.434a.231.231,0,0,0-.033-.062.344.344,0,0,0-.05-.057.328.328,0,0,0-.055-.041.107.107,0,0,0-.051-.016.183.183,0,0,0-.081.016.2.2,0,0,0-.053.038.189.189,0,0,0-.031.044l-.015.032a.18.18,0,0,0,.018.067.191.191,0,0,0,.047.06.243.243,0,0,0,.167.061.121.121,0,0,0,.072-.04.271.271,0,0,0,.065-.1" transform="translate(-1288.525 -1166.833)" fill="#fefbfe"/>
    <path id="Path_431" data-name="Path 431" d="M1392.3,1194.859a.656.656,0,0,1-.016.146,1.216,1.216,0,0,1-.038.14,1.056,1.056,0,0,1-.048.119.66.66,0,0,1-.045.083,1.169,1.169,0,0,1-.122.1,1.023,1.023,0,0,1-.165.088,1.109,1.109,0,0,1-.2.064,1.061,1.061,0,0,1-.238.025h-.011a.686.686,0,0,1-.284-.052.468.468,0,0,1-.188-.155.8.8,0,0,1-.115-.252,2.459,2.459,0,0,1-.065-.344c-.011-.091-.022-.192-.031-.3s-.019-.223-.028-.338-.021-.231-.032-.346-.025-.223-.041-.324-.036-.194-.057-.278a.8.8,0,0,0-.08-.2.851.851,0,0,1,.043-.145,1.417,1.417,0,0,1,.059-.138,1.1,1.1,0,0,1,.067-.121c.024-.037.046-.069.067-.1h.027a1.586,1.586,0,0,1,.07.25,2.4,2.4,0,0,1,.04.266l.157,1.59a.718.718,0,0,0,.129.376.377.377,0,0,0,.313.129h.01a1.075,1.075,0,0,0,.363-.055.925.925,0,0,0,.243-.125.7.7,0,0,0-.1-.2,1.9,1.9,0,0,0-.142-.168.71.71,0,0,1,.008-.107c0-.041.012-.082.02-.124s.02-.085.032-.127.025-.082.039-.118h.021a.83.83,0,0,1,.116.128,1.235,1.235,0,0,1,.11.18,1.2,1.2,0,0,1,.082.213.824.824,0,0,1,.033.229" transform="translate(-1349.759 -1138.128)" fill="#fefbfe"/>
    <path id="Path_432" data-name="Path 432" d="M1406.377,1202.2q-.237.072-.458.158c-.147.058-.292.122-.433.193l-.017-.014a.648.648,0,0,1,.029-.086c.014-.034.029-.067.047-.1a.67.67,0,0,1,.057-.091.226.226,0,0,1,.065-.06,2.852,2.852,0,0,1,.37-.161q.209-.077.439-.144l.017.013Z" transform="translate(-1364.009 -1147.053)" fill="#fefbfe"/>
    <path id="Path_433" data-name="Path 433" d="M1401.646,1266.764l-.095-.072-.1-.072-.08-.061-.051.066c-.017.025-.034.05-.051.077s-.033.053-.049.078-.03.052-.041.073-.014.017-.023.017a.04.04,0,0,1-.02-.01l-.031-.022-.157-.117c-.058-.042-.109-.082-.157-.118a.71.71,0,0,0-.057.08c-.022.031-.042.066-.064.1s-.042.069-.06.1-.035.063-.048.088c.025.02.053.042.084.064s.064.046.1.071l.095.07.082.061c.021-.025.041-.052.062-.081s.039-.056.055-.082.032-.05.045-.072.023-.04.03-.055.013-.016.02-.016a.044.044,0,0,1,.023.01l.031.021c.026.02.053.04.082.061l.085.063.079.059.065.048c.017-.02.036-.044.057-.074s.042-.062.064-.1.041-.068.061-.1.035-.066.047-.094l-.083-.063" transform="translate(-1359.343 -1208.662)" fill="#fefbfe"/>
    <path id="Path_434" data-name="Path 434" d="M1468.832,1288.068l-.029.054c-.013.023-.028.047-.045.073l-.055.082c-.02.028-.041.055-.062.08l-.082-.061-.094-.069-.1-.071-.085-.063c.013-.026.029-.055.048-.088s.039-.067.06-.1.042-.068.064-.1a.924.924,0,0,1,.057-.079c.047.036.1.075.157.118s.11.082.157.118l.031.022a.043.043,0,0,0,.02.009.028.028,0,0,0,.023-.016c.012-.022.025-.047.041-.073s.031-.053.048-.08.035-.052.052-.076.034-.047.05-.066l.081.06.1.072.095.072.083.062c-.012.029-.029.06-.048.094s-.039.069-.06.1-.043.066-.064.1a.87.87,0,0,1-.057.075l-.066-.048-.079-.058-.085-.063-.082-.061-.031-.022a.043.043,0,0,0-.023-.009c-.006,0-.013.005-.021.017" transform="translate(-1423.809 -1228.783)" fill="#fefbfe"/>
    <path id="Path_435" data-name="Path 435" d="M1510.369,1261.6q-.356.1-.689.227t-.651.28l-.016-.014a.6.6,0,0,1,.028-.085.781.781,0,0,1,.044-.1.63.63,0,0,1,.056-.086.221.221,0,0,1,.065-.059,4.356,4.356,0,0,1,.574-.244c.218-.077.446-.149.683-.217l.017.012Z" transform="translate(-1462.581 -1203.657)" fill="#fefbfe"/>
    <path id="Path_436" data-name="Path 436" d="M1455.706,1226.207c.008-.03.02-.065.034-.1s.029-.075.047-.113.034-.073.051-.107.033-.064.049-.091a.641.641,0,0,1,.141-.094.347.347,0,0,1,.154-.04.742.742,0,0,1,.209.029,1.745,1.745,0,0,1,.2.073c.068.029.14.061.212.095a2.241,2.241,0,0,0,.236.095,3.173,3.173,0,0,0,.517.132,3.267,3.267,0,0,0,.529.044l.023.025a1.017,1.017,0,0,1-.076.218c-.034.07-.071.141-.113.212-.076-.007-.147-.014-.212-.023a1.512,1.512,0,0,0-.191-.012,1.409,1.409,0,0,0-.229.021c-.086.014-.173.03-.261.049s-.171.038-.25.059l-.2.052c-.108.029-.214.059-.321.09s-.2.059-.288.085-.153.05-.206.071-.078.037-.078.05.021.014.065.022l.161.028c.065.011.134.025.21.042a1.288,1.288,0,0,1,.21.065.556.556,0,0,1,.161.1.176.176,0,0,1,.065.137.474.474,0,0,1-.014.109,1.051,1.051,0,0,1-.035.117,1.01,1.01,0,0,1-.05.114c-.019.037-.038.07-.056.1a1.187,1.187,0,0,1-.252.206,2.018,2.018,0,0,1-.354.174,2.6,2.6,0,0,1-.425.12,2.4,2.4,0,0,1-.466.045,1.293,1.293,0,0,1-.349-.042.865.865,0,0,1-.251-.112.666.666,0,0,1-.169-.16.852.852,0,0,1-.1-.186.9.9,0,0,1-.051-.189,1.206,1.206,0,0,1-.014-.171,1.265,1.265,0,0,1,.034-.288,2.179,2.179,0,0,1,.084-.274,2.207,2.207,0,0,1,.107-.24c.038-.073.072-.136.1-.187l.083.036c-.021.045-.042.092-.064.143a1.6,1.6,0,0,0-.057.155,1.4,1.4,0,0,0-.042.161.85.85,0,0,0-.016.159.644.644,0,0,0,.065.3.583.583,0,0,0,.182.212.826.826,0,0,0,.285.127,1.58,1.58,0,0,0,.373.042,1.992,1.992,0,0,0,.322-.027,2.791,2.791,0,0,0,.33-.073,2.145,2.145,0,0,0,.3-.109,1.252,1.252,0,0,0,.232-.131c0-.011-.018-.021-.056-.03s-.086-.018-.145-.027l-.191-.029c-.069-.011-.136-.023-.2-.037a1.257,1.257,0,0,1-.168-.049.19.19,0,0,1-.1-.066.218.218,0,0,1-.031-.075.339.339,0,0,1,0-.088.3.3,0,0,1,.016-.08c.009-.029.019-.058.032-.087s.025-.059.038-.088.027-.056.039-.081a.283.283,0,0,1,.066-.085.486.486,0,0,1,.127-.078,3.528,3.528,0,0,1,.5-.163,5.8,5.8,0,0,1,.661-.125v-.021l-.206-.074c-.062-.023-.12-.043-.175-.062s-.106-.033-.156-.045a.811.811,0,0,0-.148-.022,2.16,2.16,0,0,0-.227.038,1.493,1.493,0,0,0-.227.068Z" transform="translate(-1410.183 -1169.696)" fill="#fefbfe"/>
    <path id="Path_437" data-name="Path 437" d="M1537,1223.78a.449.449,0,0,1-.048.07.257.257,0,0,1-.065.056.308.308,0,0,1-.09.038.471.471,0,0,1-.122.014.448.448,0,0,1-.17-.032.429.429,0,0,1-.141-.091.448.448,0,0,1-.1-.139.422.422,0,0,1-.036-.175,1.038,1.038,0,0,1,.051-.318,1.285,1.285,0,0,1,.126-.277.845.845,0,0,1,.161-.2.253.253,0,0,1,.158-.074.32.32,0,0,1,.213.081.65.65,0,0,1,.159.223,1.431,1.431,0,0,1,.1.328,2.2,2.2,0,0,1,.035.4,2.263,2.263,0,0,1-.036.4,2.447,2.447,0,0,1-.1.384,2.048,2.048,0,0,1-.16.344,1.5,1.5,0,0,1-.209.278.934.934,0,0,1-.249.186.609.609,0,0,1-.279.068,1.251,1.251,0,0,1-.184-.015,1.441,1.441,0,0,1-.208-.048,1.672,1.672,0,0,1-.226-.088,2.086,2.086,0,0,1-.24-.137l.028-.067a1.5,1.5,0,0,0,.207.053,1.141,1.141,0,0,0,.193.017.909.909,0,0,0,.41-.1,1.553,1.553,0,0,0,.373-.266,1.869,1.869,0,0,0,.3-.37,1.688,1.688,0,0,0,.188-.417.345.345,0,0,0-.023-.13Zm-.161-.434a.208.208,0,0,0-.033-.062.32.32,0,0,0-.05-.057.3.3,0,0,0-.055-.041.1.1,0,0,0-.051-.016.181.181,0,0,0-.08.016.184.184,0,0,0-.053.038.189.189,0,0,0-.032.044l-.015.032a.172.172,0,0,0,.018.067.187.187,0,0,0,.047.06.243.243,0,0,0,.166.061.123.123,0,0,0,.073-.04.262.262,0,0,0,.065-.1" transform="translate(-1487.645 -1166.833)" fill="#fefbfe"/>
    <path id="Path_438" data-name="Path 438" d="M1583.287,1193.491h-.013a.365.365,0,0,0-.069-.053.4.4,0,0,0-.1-.041.471.471,0,0,1-.121.119.879.879,0,0,1-.178.094,1.3,1.3,0,0,1-.227.067,1.79,1.79,0,0,1-.267.035l-.024-.1q.166-.058.316-.125a1.822,1.822,0,0,0,.289-.161c-.029-.01-.057-.022-.086-.035a.4.4,0,0,1-.079-.048.216.216,0,0,1-.056-.068.188.188,0,0,1-.021-.092.306.306,0,0,1,.044-.156.612.612,0,0,1,.238-.225.259.259,0,0,1,.115-.036.138.138,0,0,1,.086.026.2.2,0,0,1,.057.07.378.378,0,0,1,.032.1.761.761,0,0,1,.01.115.609.609,0,0,1-.011.1c-.007.039-.013.069-.017.09l.043.017a.123.123,0,0,1,.061.039.164.164,0,0,1,.036.059Zm-.465-.517a.1.1,0,0,0,.047.071.46.46,0,0,0,.159.063.205.205,0,0,0,.012-.038.186.186,0,0,0,.005-.042.337.337,0,0,0-.016-.108c-.011-.032-.026-.048-.046-.048a.191.191,0,0,0-.059.01.224.224,0,0,0-.052.026.172.172,0,0,0-.036.033.056.056,0,0,0-.014.032" transform="translate(-1532.342 -1138.258)" fill="#fefbfe"/>
    <path id="Path_439" data-name="Path 439" d="M1570.806,1227.447c.006-.084.015-.167.029-.25a2.208,2.208,0,0,1,.059-.256h.029a1.37,1.37,0,0,1,.42.994,1.58,1.58,0,0,1-.037.332,2.038,2.038,0,0,1-.1.336,2.014,2.014,0,0,1-.159.313,1.419,1.419,0,0,1-.2.26.967.967,0,0,1-.236.177.548.548,0,0,1-.257.065,1.2,1.2,0,0,1-.384-.067,2.248,2.248,0,0,1-.437-.213l.026-.064.11.028c.032.008.064.013.091.018s.056.009.082.011.055,0,.085,0a.869.869,0,0,0,.324-.063,1.42,1.42,0,0,0,.3-.16,1.786,1.786,0,0,0,.256-.216,2.2,2.2,0,0,0,.2-.233,1.449,1.449,0,0,0,.131-.208.36.36,0,0,0,.047-.142.369.369,0,0,0-.032-.12,1.566,1.566,0,0,0-.084-.177c-.035-.064-.075-.129-.118-.194s-.088-.125-.132-.177" transform="translate(-1520.189 -1170.917)" fill="#fefbfe"/>
    <path id="Path_440" data-name="Path 440" d="M1644.08,1193.092c-.237.067-.467.143-.688.228s-.438.178-.65.278l-.019-.015c.007-.024.017-.052.03-.085a.75.75,0,0,1,.045-.1.694.694,0,0,1,.054-.086.206.206,0,0,1,.064-.059,4.9,4.9,0,0,1,.576-.242q.325-.114.682-.219l.017.015Z" transform="translate(-1589.872 -1138.385)" fill="#fefbfe"/>
    <path id="Path_441" data-name="Path 441" d="M1638.1,1190.151q-.019.077-.039.147a1.027,1.027,0,0,1-.043.125.482.482,0,0,1-.05.093.115.115,0,0,1-.058.048c.01.091.022.188.035.293s.027.209.041.315.026.21.039.312.024.2.034.283.018.163.025.229.009.115.009.147a1.176,1.176,0,0,1-.021.217,1.534,1.534,0,0,1-.059.223,1.558,1.558,0,0,1-.09.21,1.277,1.277,0,0,1-.111.18c-.072,0-.156,0-.253.005l-.311.015-.346.02-.355.021q-.235.015-.447.023c-.141.006-.261.008-.361.008a.6.6,0,0,1-.1-.007.281.281,0,0,1-.085-.026.15.15,0,0,1-.059-.052.147.147,0,0,1-.022-.084,1.535,1.535,0,0,1,.023-.262c.016-.09.033-.179.053-.269l.108.009.009.077a.074.074,0,0,0,.013.04.117.117,0,0,0,.045.039.312.312,0,0,0,.086.029.678.678,0,0,0,.137.011q.127,0,.317-.009l.409-.02.332-.016.322-.016.287-.012c.088,0,.162,0,.224,0a.4.4,0,0,0,.029-.113.753.753,0,0,0,0-.242c-.007-.053-.016-.116-.029-.19s-.025-.155-.041-.245-.03-.182-.045-.278-.031-.19-.045-.285-.029-.184-.041-.268-.022-.158-.029-.224a1.541,1.541,0,0,1-.01-.156.673.673,0,0,1,0-.074c0-.024.006-.045.01-.063a.678.678,0,0,0-.036-.065.166.166,0,0,1-.019-.086.3.3,0,0,1,.016-.092c.01-.033.024-.068.04-.1s.034-.073.053-.11.037-.073.054-.107h.036a.247.247,0,0,0,.043.1.63.63,0,0,0,.081.092c.031.029.064.057.1.084s.067.054.1.08m-1.113.8q-.064.029-.119.057a1.009,1.009,0,0,0-.1.056.358.358,0,0,0-.065.053.075.075,0,0,0-.024.049c0,.013.012.022.036.03a.781.781,0,0,0,.091.02l.119.02a.664.664,0,0,1,.118.03.294.294,0,0,1,.091.05.1.1,0,0,1,.036.078.76.76,0,0,1-.037.255.336.336,0,0,1-.135.17.683.683,0,0,1-.269.095,2.666,2.666,0,0,1-.441.029l-.006-.081a1.465,1.465,0,0,0,.23-.058,1.787,1.787,0,0,0,.2-.082.961.961,0,0,0,.144-.083c.036-.026.055-.047.055-.06s-.011-.019-.033-.024a.746.746,0,0,0-.081-.014l-.107-.015a.359.359,0,0,1-.107-.031.239.239,0,0,1-.081-.062.156.156,0,0,1-.033-.106.392.392,0,0,1,.059-.2,1.028,1.028,0,0,1,.145-.194,1.648,1.648,0,0,1,.181-.167,1.085,1.085,0,0,1,.17-.113l.019.009Z" transform="translate(-1582.973 -1135.522)" fill="#fefbfe"/>
    <path id="Path_442" data-name="Path 442" d="M1697.024,1200.583c0-.021.006-.046.009-.076s.005-.061.007-.095,0-.066,0-.1,0-.06,0-.086a2.685,2.685,0,0,0-.019-.306c-.012-.11-.029-.221-.047-.336s-.039-.23-.061-.346-.043-.227-.061-.335-.034-.21-.047-.306a1.985,1.985,0,0,1-.019-.257.659.659,0,0,1,.03-.131,1.262,1.262,0,0,1,.055-.137,1.218,1.218,0,0,1,.071-.13c.026-.042.051-.081.077-.115h.023c.005.1.015.215.027.34s.027.254.045.387.034.266.052.4.034.258.049.374.027.22.037.311a2.09,2.09,0,0,1,.015.214,1.688,1.688,0,0,1-.018.253,2.109,2.109,0,0,1-.043.212,1.387,1.387,0,0,1-.055.166.864.864,0,0,1-.055.113Z" transform="translate(-1641.344 -1143.182)" fill="#fefbfe"/>
    <path id="Path_443" data-name="Path 443" d="M1725.215,1189.3c-.158.048-.311.1-.458.158s-.291.122-.432.193l-.017-.014a.671.671,0,0,1,.029-.086q.021-.05.047-.1a.631.631,0,0,1,.058-.091.221.221,0,0,1,.064-.06,2.961,2.961,0,0,1,.369-.162q.21-.076.439-.143l.017.013Z" transform="translate(-1667.54 -1134.766)" fill="#fefbfe"/>
    <path id="Path_444" data-name="Path 444" d="M1763.647,1268.546q-.237.071-.458.157t-.433.193l-.017-.015a.658.658,0,0,1,.029-.086,1.062,1.062,0,0,1,.047-.1.662.662,0,0,1,.057-.091.2.2,0,0,1,.065-.059,2.7,2.7,0,0,1,.369-.162q.21-.076.439-.143l.017.012Z" transform="translate(-1704.126 -1210.265)" fill="#fefbfe"/>
    <path id="Path_445" data-name="Path 445" d="M1764.492,1194.016c-.03-.023-.061-.047-.094-.07s-.065-.047-.1-.072l-.088-.066a.889.889,0,0,0-.06.08l-.063.1c-.022.034-.042.068-.061.1s-.034.064-.047.091l.177.132.179.134a1.625,1.625,0,0,0,.128-.179,1.757,1.757,0,0,0,.1-.189c-.023-.017-.049-.036-.078-.059" transform="translate(-1705.31 -1139.351)" fill="#fefbfe"/>
    <path id="Path_446" data-name="Path 446" d="M1717.1,1210.339a1.186,1.186,0,0,0-.116-.3.677.677,0,0,0-.182-.217.381.381,0,0,0-.243-.085.265.265,0,0,0-.173.076.727.727,0,0,0-.156.2,1.192,1.192,0,0,0-.112.275,1.131,1.131,0,0,0-.042.31.421.421,0,0,0,.042.2.372.372,0,0,0,.108.129.4.4,0,0,0,.141.07.56.56,0,0,0,.147.021.351.351,0,0,0,.2-.061.3.3,0,0,0,.12-.173h.022a.253.253,0,0,1,.051.109.6.6,0,0,1,.012.122.3.3,0,0,1,0,.048.285.285,0,0,1-.007.042,1.083,1.083,0,0,1-.2.1,2.045,2.045,0,0,1-.253.08,2.4,2.4,0,0,1-.283.051,2.267,2.267,0,0,1-.284.018h0a.581.581,0,0,1-.365-.109.593.593,0,0,1-.2-.342q-.088-.34-.162-.678c-.049-.226-.1-.451-.142-.678h-.034c-.022.037-.042.078-.063.12s-.042.084-.06.126a.952.952,0,0,0-.044.122.4.4,0,0,0-.017.11.934.934,0,0,0,.015.131c.011.064.024.136.039.218s.033.165.05.252.034.164.048.231a.964.964,0,0,1-.01.113.283.283,0,0,1-.022.077.154.154,0,0,1-.04.053.428.428,0,0,1-.058.039.943.943,0,0,1-.132.057,1.265,1.265,0,0,1-.143.039,1.384,1.384,0,0,1-.145.02c-.048,0-.095.006-.138.006a.6.6,0,0,1-.236-.033.163.163,0,0,1-.089-.083.424.424,0,0,1-.022-.083c0-.026-.006-.054-.01-.084l-.1,0c-.023.1-.046.188-.065.279a1.268,1.268,0,0,0-.03.273.28.28,0,0,0,.027.135.179.179,0,0,0,.083.08.424.424,0,0,0,.144.039,1.771,1.771,0,0,0,.211.01,1.288,1.288,0,0,0,.394-.061,1.027,1.027,0,0,0,.337-.173.542.542,0,0,0,.087-.144,1.077,1.077,0,0,0,.063-.18h.021a.849.849,0,0,0,.075.234.721.721,0,0,0,.114.166.574.574,0,0,0,.137.107.71.71,0,0,0,.148.063.857.857,0,0,0,.146.03c.047,0,.092.007.133.007a2,2,0,0,0,.294-.023,2.623,2.623,0,0,0,.295-.061,2.061,2.061,0,0,0,.263-.09.939.939,0,0,0,.2-.109,2.219,2.219,0,0,0,.12-.254,2.094,2.094,0,0,0,.076-.227,1.55,1.55,0,0,0,.041-.2,1.407,1.407,0,0,0,.012-.181,1.5,1.5,0,0,0-.04-.343m-.463.18a.1.1,0,0,1-.078.046.261.261,0,0,1-.16-.053.217.217,0,0,1-.088-.139.116.116,0,0,1,.022-.042.228.228,0,0,1,.043-.044.3.3,0,0,1,.056-.034.161.161,0,0,1,.062-.014.19.19,0,0,1,.122.046.273.273,0,0,1,.084.111.45.45,0,0,1-.064.123" transform="translate(-1657.456 -1154.34)" fill="#fefbfe"/>
    <path id="Path_447" data-name="Path 447" d="M1257.649,1325.723H1255.7v-.274a.278.278,0,0,0-.557,0v.274H1232.83a3.929,3.929,0,0,0,2.506.823h19.807v.547a.276.276,0,0,0,.278.274h2.228a.822.822,0,1,0,0-1.645m0,1.1H1255.7v-.274h2.228a.276.276,0,0,1-.279.274" transform="translate(-1199.659 -1264.507)" fill="#f5f5f5"/>
  </g>
</svg>
