<svg id="Group_42" data-name="Group 42" xmlns="http://www.w3.org/2000/svg" xmlns:xlink="http://www.w3.org/1999/xlink" width="284.109" height="74.03" viewBox="0 0 284.109 74.03">
  <defs>
    <clipPath id="clip-path">
      <rect id="Rectangle_5" data-name="Rectangle 5" width="284.109" height="74.03" fill="none"/>
    </clipPath>
  </defs>
  <g id="Group_3" data-name="Group 3" clip-path="url(#clip-path)">
    <g id="Group_2" data-name="Group 2" transform="translate(0 0)">
      <g id="Group_1" data-name="Group 1" clip-path="url(#clip-path)">
        <path id="Path_1" data-name="Path 1" d="M-87.141,216.656a10.492,10.492,0,0,1,6.807-6.286,11.811,11.811,0,0,1,2.674-.357c4.9-.011,10.97,0,15.867,0h.8v-.857q0-7.459,0-14.914a10.979,10.979,0,0,1,3.463-8.41,9.612,9.612,0,0,1,4.98-2.52c-.471.771-.9,1.424-1.274,2.1a21.219,21.219,0,0,0-2.609,8.349,31.569,31.569,0,0,0,1.656,12.412c.96,3.173,3.877,9.238,3.359,10.766-.282.832-.76,1.588-1.1,2.4a13.279,13.279,0,0,0-1.11,5.219,7.93,7.93,0,0,0,.81,3.687c.632,1.21.546,3.338.45,4.644-.368,4.873-1.342,12.037-3.016,16.6-.692,1.881-1.574,3.684-2.424,5.651a10.5,10.5,0,0,1-2.445-3.759,11.665,11.665,0,0,1-.739-4.284q-.011-7.453,0-14.91v-.892h-.828c-4.844,0-10.866.014-15.714,0a10.288,10.288,0,0,1-9.845-7.5,10.063,10.063,0,0,1-.375-4.551c9.892,6.218,21.332,7.953,33,7.639-.7-2.138.482-6.3.771-7.211.178-.55-.125-.921-.675-.821a9.318,9.318,0,0,0-1.76.528c-8.4,3.812-28.1-1.628-30.721-2.72" transform="translate(87.872 -183.307)" fill="#9dcae0"/>
        <path id="Path_2" data-name="Path 2" d="M-37.867,194.443a1.229,1.229,0,0,0-.671-.768c-2.417-1.078-11.8-5.172-30.681,7.079a.739.739,0,0,0-.35.521c-.407,2.984-.7,5.986-1.192,8.953-.8,4.869-2.224,11.973-4.359,16.385-1.124,2.324-2.452,4.544-3.709,6.85.068.036.228.139.4.218a9.486,9.486,0,0,0,5.437.835,10.3,10.3,0,0,0,8.7-10.406V208.09h.9c4.769,0,11.005.021,15.774-.007a10.414,10.414,0,0,0,9.749-13.64m-9,7.229s-3.923-.682-3.805-4.173c0,0,.107-3.373,4.769-2.8a3.19,3.19,0,0,1,1.049.318c.946.482,2.777,1.674,2.72,3.727,0,0-.039,3.413-4.733,2.931" transform="translate(111.109 -160.587)" fill="#fff"/>
        <path id="Path_3" data-name="Path 3" d="M-48.121,209.909c-4.983-.079-11.437-.021-16.421-.021h-.792v-.917q0-7.582,0-15.16a10.086,10.086,0,0,0-.05-1.139,10.305,10.305,0,0,0-9.26-9.31.915.915,0,0,0-1,.507,19.29,19.29,0,0,0-2.217,14.653,74.78,74.78,0,0,0,3.5,10.327c1.321,3.413,3.488,9.342,3.609,10.052a143.113,143.113,0,0,1,14.825-4.819,29.06,29.06,0,0,1,12.7-.582c.9.193,1.788.389,2.8.607a9.659,9.659,0,0,0-7.685-4.2M-70.357,195.6a3.083,3.083,0,0,1-.061.4c-.189.832-1.046,3.727-3.773,3.755a2.388,2.388,0,0,1-.575-.068c-.707-.178-2.142-.842-2.335-3.284a5.863,5.863,0,0,1,1.217-4.141,3.35,3.35,0,0,1,2.7-1.421s3.188.039,2.824,4.758" transform="translate(112.15 -183.189)" fill="#fff"/>
        <path id="Path_4" data-name="Path 4" d="M-40.329,225.549H-61.5v-36.76h21.171v6.386H-53.706v8.072h12.446v6.386H-53.706v9.479h13.377Z" transform="translate(155.638 -169.223)" fill="#fff"/>
        <rect id="Rectangle_3" data-name="Rectangle 3" width="7.669" height="38.265" transform="translate(123.661 18.06)" fill="#fff"/>
        <path id="Path_5" data-name="Path 5" d="M-48.558,191.874q0-3.748,4.173-3.748t4.173,3.748a3.647,3.647,0,0,1-1.042,2.777,4.378,4.378,0,0,1-3.131,1q-4.171,0-4.173-3.773m8,35.375h-7.671V199.142h7.671Z" transform="translate(188.895 -170.926)" fill="#fff"/>
        <path id="Path_6" data-name="Path 6" d="M-29.817,218.024a16.566,16.566,0,0,0,4.83-.882v5.708a17.2,17.2,0,0,1-7.043,1.282q-4.6,0-6.7-2.324t-2.1-6.979v-13.55H-44.5v-3.245l4.223-2.563,2.213-5.936h4.9v5.986h7.871v5.758h-7.871v13.55a2.99,2.99,0,0,0,.917,2.413,3.619,3.619,0,0,0,2.427.782" transform="translate(199.325 -167.305)" fill="#fff"/>
        <path id="Path_7" data-name="Path 7" d="M-11.133,226.634H-18.8V210.213q0-6.083-4.526-6.086a5.149,5.149,0,0,0-4.651,2.188q-1.435,2.19-1.435,7.093v13.226h-7.668V188.367h7.668v7.111q0,.932-.175,4.376l-.175,2.263h.4q2.565-4.123,8.15-4.123,4.953,0,7.518,2.663t2.563,7.646Z" transform="translate(218.387 -170.307)" fill="#fff"/>
        <path id="Path_8" data-name="Path 8" d="M-8.046,219.739l-1.485-3.823h-.2a11.346,11.346,0,0,1-3.987,3.381,12.9,12.9,0,0,1-5.344.942,8.633,8.633,0,0,1-6.372-2.313,8.873,8.873,0,0,1-2.327-6.586q0-4.476,3.131-6.6t9.442-2.352l4.88-.15v-1.231q0-4.273-4.376-4.276a19.956,19.956,0,0,0-7.921,2.038l-2.538-5.18a22.86,22.86,0,0,1,10.763-2.538q5.654,0,8.674,2.463t3.016,7.493v18.734Zm-2.263-13.026-2.97.1a9.524,9.524,0,0,0-4.976,1.207,3.786,3.786,0,0,0-1.635,3.37q0,3.245,3.72,3.245a5.9,5.9,0,0,0,4.262-1.535,5.377,5.377,0,0,0,1.6-4.073Z" transform="translate(242.336 -163.412)" fill="#fff"/>
        <path id="Path_9" data-name="Path 9" d="M-18.257,191.874q0-3.748,4.173-3.748t4.173,3.748a3.66,3.66,0,0,1-1.042,2.777,4.378,4.378,0,0,1-3.131,1q-4.177,0-4.173-3.773m8,35.375h-7.671V199.142h7.671Z" transform="translate(266.759 -170.926)" fill="#fff"/>
        <path id="Path_10" data-name="Path 10" d="M2.286,191.064a12.45,12.45,0,0,1,2.592.225L4.3,198.482a8.776,8.776,0,0,0-2.263-.254,8.124,8.124,0,0,0-5.719,1.885A6.826,6.826,0,0,0-5.735,205.4v14.3H-13.4V191.592H-7.6l1.132,4.726h.378a10.556,10.556,0,0,1,3.53-3.809,8.72,8.72,0,0,1,4.84-1.446" transform="translate(279.232 -163.376)" fill="#fff"/>
      </g>
    </g>
  </g>
</svg>
