<svg xmlns="http://www.w3.org/2000/svg" width="84.995" height="84.995" viewBox="0 0 84.995 84.995">
  <g id="Group_80" data-name="Group 80" transform="translate(-316.776 -568.763)">
    <path id="Path_459" data-name="Path 459" d="M88.239,44.784A44.067,44.067,0,0,1,87.92,50.1c-.133.877-.265,1.78-.426,2.657a41.4,41.4,0,0,1-3.822,11.208c-.268.53-.533,1.063-.824,1.568-.48.849-.985,1.7-1.515,2.5a37.875,37.875,0,0,1-3.664,4.807,42.456,42.456,0,0,1-23.958,13.7c-.877.161-1.78.293-2.657.426a44.418,44.418,0,0,1-10.624,0c-.877-.133-1.78-.265-2.655-.426a42.437,42.437,0,0,1-23.958-13.7,13.274,13.274,0,0,1-1.142-1.354,28.527,28.527,0,0,1-1.726-2.285,38.438,38.438,0,0,1-3.134-5.233A41.409,41.409,0,0,1,3.989,52.754c-.158-.877-.293-1.78-.4-2.657a40.833,40.833,0,0,1,0-10.624c.1-.877.24-1.78.4-2.657A41.409,41.409,0,0,1,7.814,25.608q.317-.677.717-1.354c.451-.849.956-1.7,1.487-2.525a40.808,40.808,0,0,1,3.8-4.993,42.437,42.437,0,0,1,23.958-13.7c.874-.161,1.777-.293,2.655-.4a40.833,40.833,0,0,1,10.624,0c.877.1,1.78.237,2.657.4a42.456,42.456,0,0,1,23.958,13.7,14.039,14.039,0,0,1,1.142,1.354c.609.745,1.193,1.489,1.726,2.285a38.726,38.726,0,0,1,3.134,5.233,41.4,41.4,0,0,1,3.822,11.208c.161.877.293,1.78.426,2.657a44.067,44.067,0,0,1,.319,5.312" transform="translate(313.532 566.476)" fill="#00347d"/>
    <path id="Path_460" data-name="Path 460" d="M88.239,44.784A44.067,44.067,0,0,1,87.92,50.1H51.053V86.963a44.418,44.418,0,0,1-10.624,0V50.1H3.591a40.833,40.833,0,0,1,0-10.624H40.43V2.634a40.833,40.833,0,0,1,10.624,0V39.473H87.92a44.067,44.067,0,0,1,.319,5.312" transform="translate(313.532 566.476)" fill="#cf142b"/>
    <path id="Path_461" data-name="Path 461" d="M87.92,39.473c-.133-.877-.265-1.78-.426-2.657H70.363L83.672,25.608a38.454,38.454,0,0,0-3.137-5.233,27.991,27.991,0,0,0-1.726-2.282,13.325,13.325,0,0,0-1.14-1.357L53.9,36.815h-.186V3.032c-.877-.161-1.78-.293-2.657-.4a40.833,40.833,0,0,0-10.624,0c-.877.1-1.78.237-2.655.4V36.815h-.186L13.817,16.736a40.808,40.808,0,0,0-3.8,4.993c-.53.824-1.035,1.676-1.487,2.525q-.4.677-.717,1.354L21.12,36.815H3.989c-.158.877-.293,1.78-.4,2.657a40.833,40.833,0,0,0,0,10.624c.1.877.24,1.78.4,2.657H21.12L7.814,63.961a38.438,38.438,0,0,0,3.134,5.233,28.527,28.527,0,0,0,1.726,2.285,13.274,13.274,0,0,0,1.142,1.354L37.589,52.754h.186V86.537c.874.161,1.777.293,2.655.426a44.418,44.418,0,0,0,10.624,0c.877-.133,1.78-.265,2.657-.426V52.754H53.9L77.669,72.833a37.875,37.875,0,0,0,3.664-4.807c.53-.8,1.035-1.647,1.515-2.5.291-.5.556-1.038.824-1.568L70.363,52.754H87.494c.161-.877.293-1.78.426-2.657a44.418,44.418,0,0,0,0-10.624" transform="translate(313.532 566.476)" fill="#fff"/>
    <path id="Path_462" data-name="Path 462" d="M88.239,44.784A44.067,44.067,0,0,1,87.92,50.1H51.053V86.963a44.418,44.418,0,0,1-10.624,0V50.1H3.591a40.833,40.833,0,0,1,0-10.624H40.43V2.634a40.833,40.833,0,0,1,10.624,0V39.473H87.92a44.067,44.067,0,0,1,.319,5.312" transform="translate(313.532 566.476)" fill="#cf142b"/>
    <path id="Path_463" data-name="Path 463" d="M24.481,24.265H20.046L5.118,11.7c.451-.849.956-1.7,1.487-2.522Z" transform="translate(316.944 579.026)" fill="#cf142b"/>
    <path id="Path_464" data-name="Path 464" d="M46.091,10.174,26.6,26.614H22.161l22.2-18.725a28.529,28.529,0,0,1,1.726,2.285" transform="translate(347.979 576.676)" fill="#cf142b"/>
    <path id="Path_465" data-name="Path 465" d="M29.905,20.177,7.7,38.9a28.034,28.034,0,0,1-1.726-2.285l19.5-16.44Z" transform="translate(318.505 599.052)" fill="#cf142b"/>
    <path id="Path_466" data-name="Path 466" d="M44.117,32.953c-.477.849-.982,1.7-1.515,2.5L24.514,20.177h4.437Z" transform="translate(352.263 599.052)" fill="#cf142b"/>
  </g>
</svg>
