<svg xmlns="http://www.w3.org/2000/svg" xmlns:xlink="http://www.w3.org/1999/xlink" width="88.615" height="88.615" viewBox="0 0 88.615 88.615">
  <defs>
    <clipPath id="clip-path">
      <path id="Path_405" data-name="Path 405" d="M49.639,46.245A44.307,44.307,0,1,0,93.946,1.938,44.307,44.307,0,0,0,49.639,46.245" transform="translate(-49.639 -1.938)" fill="none"/>
    </clipPath>
  </defs>
  <g id="Group_28" data-name="Group 28" clip-path="url(#clip-path)">
    <rect id="Rectangle_35" data-name="Rectangle 35" width="105.231" height="89.179" transform="translate(-8.379 -0.161) rotate(-0.091)" fill="#eb0006"/>
    <rect id="Rectangle_36" data-name="Rectangle 36" width="42.092" height="89.178" transform="translate(-8.379 -0.161) rotate(-0.091)" fill="#005f13"/>
    <path id="Path_147" data-name="Path 147" d="M184.481,221.757c-5.3-.151-29.618-15.278-29.789-17.693l1.338-2.24c2.416,3.5,27.277,18.208,29.715,17.681l-1.264,2.251" transform="translate(-136.96 -168.085)" fill="#fffa00"/>
    <path id="Path_148" data-name="Path 148" d="M184.234,221.558h0c-2.823-.08-10.837-4.363-16.842-8-6.193-3.757-12.9-8.405-13-9.735a.05.05,0,0,1,.007-.029l1.338-2.24a.051.051,0,0,1,.041-.024.048.048,0,0,1,.043.022c1.238,1.793,8.342,6.483,14.833,10.335,7.658,4.545,13.75,7.555,14.83,7.325a.05.05,0,0,1,.051.019.05.05,0,0,1,0,.054l-1.262,2.246a.05.05,0,0,1-.046.031M154.5,203.827c.125,1.113,5.555,5.157,12.946,9.641,5.973,3.623,13.932,7.879,16.762,7.989l1.2-2.138c-1.528.079-8.465-3.591-14.8-7.35-6.426-3.814-13.455-8.451-14.82-10.3Z" transform="translate(-136.713 -167.837)"/>
    <path id="Path_149" data-name="Path 149" d="M154.6,197.973c-.473,1.28,6.349,5.483,14.557,10.457s15.283,8.045,15.806,7.6a4.627,4.627,0,0,0,.237-.443c-.1.148-.337.2-.71.088-2.216-.636-8-3.278-15.161-7.606s-13.394-8.317-14.364-10.015a1.031,1.031,0,0,1-.106-.5h-.024l-.205.361-.028.057h0Zm28.858,20.306c-.09.163-.257.169-.575.134-1.982-.216-8-3.131-15.123-7.38-8.288-4.943-15.133-9.449-14.393-10.63l.2-.357.04.012c-.664,2,13.511,10.077,14.346,10.592,8.2,5.064,15.116,8.018,15.726,7.246l-.222.383h0Z" transform="translate(-135.815 -164.538)" fill="#fffa00"/>
    <path id="Path_150" data-name="Path 150" d="M182.886,218.234a2.36,2.36,0,0,1-.254-.017c-2.02-.22-8.106-3.188-15.143-7.386-9.4-5.608-14.131-8.986-14.454-10.326a.474.474,0,0,1,.044-.374l.2-.355a.05.05,0,0,1,.059-.023l.04.012a.051.051,0,0,1,.033.064c-.22.663,1.276,2.871,13.768,10.2.286.168.48.282.557.33,7.469,4.61,13.645,7.363,15.3,7.36a.466.466,0,0,0,.359-.1.05.05,0,0,1,.083.056l-.222.383,0,0a.379.379,0,0,1-.368.172m-29.6-18.274-.125.222a.374.374,0,0,0-.033.3c.317,1.312,5.029,4.669,14.408,10.263,7.027,4.191,13.1,7.154,15.1,7.373a2.265,2.265,0,0,0,.243.017c.156,0,.233-.034.283-.125l0,0,.123-.213a.935.935,0,0,1-.258.031c-1.67,0-7.871-2.755-15.354-7.375-.078-.048-.27-.161-.555-.328-9.178-5.388-13.828-8.8-13.837-10.159m31.249,15.918c-1.232,0-7.942-2.978-15.654-7.651-8.833-5.354-15.049-9.241-14.578-10.517l.031-.061.207-.363a.061.061,0,0,1,.044-.025h.024a.051.051,0,0,1,.036.016.05.05,0,0,1,.013.037.987.987,0,0,0,.1.472c1.027,1.8,8.207,6.286,14.347,10,6.735,4.07,12.719,6.9,15.149,7.6.325.093.565.068.655-.068a.05.05,0,0,1,.042-.023.052.052,0,0,1,.044.025c.019.033.022.038-.209.443l-.028.049a.049.049,0,0,1-.011.014.322.322,0,0,1-.21.054m-29.974-18.427-.166.3c-.478,1.292,7.5,6.126,14.537,10.391,7.7,4.665,14.382,7.639,15.6,7.637a.263.263,0,0,0,.14-.026l.023-.041c.024-.042.072-.126.115-.2a1.021,1.021,0,0,1-.588-.026c-2.437-.7-8.431-3.537-15.173-7.611-6.151-3.717-13.344-8.216-14.382-10.033a1.036,1.036,0,0,1-.109-.383" transform="translate(-135.567 -164.291)"/>
    <path id="Path_151" data-name="Path 151" d="M173.435,204.976c5.3-.05,11.846-.743,15.61-2.25l-.814-1.317c-2.224,1.236-8.8,2.056-14.843,2.187-7.145-.055-12.189-.712-14.718-2.4l-.764,1.405c4.648,1.958,9.408,2.368,15.529,2.379" transform="translate(-139.632 -167.56)" fill="#fffa00"/>
    <path id="Path_152" data-name="Path 152" d="M173.187,204.778h0c-6.133-.011-10.873-.413-15.548-2.383a.05.05,0,0,1-.028-.03.051.051,0,0,1,0-.041l.764-1.4a.05.05,0,0,1,.072-.018c2.356,1.575,7.024,2.336,14.691,2.395,5.459-.118,12.425-.851,14.818-2.18a.05.05,0,0,1,.067.017l.814,1.317a.051.051,0,0,1-.024.073c-3.97,1.59-10.673,2.207-15.624,2.254h0m-15.458-2.454c4.642,1.944,9.358,2.342,15.454,2.353h0c4.919-.047,11.571-.656,15.536-2.225l-.757-1.226c-2.446,1.323-9.384,2.052-14.824,2.17-7.639-.058-12.314-.815-14.7-2.381Z" transform="translate(-139.384 -167.312)"/>
    <path id="Path_153" data-name="Path 153" d="M188.2,201.756c-.129.207-2.584,1.058-6.2,1.689a64.091,64.091,0,0,1-9.646.713,68.438,68.438,0,0,1-9.241-.57,26.908,26.908,0,0,1-6.486-1.707c.069-.138.113-.235.18-.363a28.059,28.059,0,0,0,6.365,1.676,67.663,67.663,0,0,0,9.169.572,64.4,64.4,0,0,0,9.578-.726c3.709-.6,5.735-1.378,6.019-1.736l.263.452h0Zm-.714-1.336c-.4.324-2.4,1.037-5.929,1.606a63.883,63.883,0,0,1-9.165.657,61.773,61.773,0,0,1-8.855-.556,24.421,24.421,0,0,1-6.175-1.547c.068-.118.138-.236.209-.353a21.1,21.1,0,0,0,6.005,1.52,67.5,67.5,0,0,0,17.914-.127,15.852,15.852,0,0,0,5.738-1.63l.259.43h0Z" transform="translate(-138.566 -166.561)" fill="#fffa00"/>
    <path id="Path_154" data-name="Path 154" d="M172.028,203.961a68.665,68.665,0,0,1-9.173-.57,27.338,27.338,0,0,1-6.42-1.678l-.078-.032a.05.05,0,0,1-.026-.069c.028-.056.052-.1.075-.152.034-.07.066-.135.106-.212a.05.05,0,0,1,.063-.023,28.035,28.035,0,0,0,6.354,1.673,68.023,68.023,0,0,0,9.088.571h.073a64.772,64.772,0,0,0,9.57-.725c3.663-.6,5.707-1.363,5.987-1.717a.05.05,0,0,1,.083.006l.263.452a.05.05,0,0,1,0,.05.055.055,0,0,1-.008.011,22.857,22.857,0,0,1-6.228,1.7,64.81,64.81,0,0,1-9.654.714Zm-15.583-2.353.028.011a27.213,27.213,0,0,0,6.4,1.672,68.608,68.608,0,0,0,9.158.569h.075a64.685,64.685,0,0,0,9.638-.712,25.12,25.12,0,0,0,6.148-1.646l-.211-.362c-.4.363-2.288,1.1-6,1.7a64.893,64.893,0,0,1-9.586.727h-.074a68.144,68.144,0,0,1-9.1-.572,28.166,28.166,0,0,1-6.335-1.663c-.03.059-.056.113-.084.17l-.051.1m15.617.879a62.5,62.5,0,0,1-8.784-.557,24.166,24.166,0,0,1-5.9-1.442c-.114-.043-.21-.079-.29-.108a.05.05,0,0,1-.027-.072c.068-.118.138-.236.209-.354a.05.05,0,0,1,.066-.019,20.58,20.58,0,0,0,5.99,1.515,62.844,62.844,0,0,0,8.724.534h.085a62.746,62.746,0,0,0,9.091-.661,16.045,16.045,0,0,0,5.714-1.62.05.05,0,0,1,.074.014l.259.43a.051.051,0,0,1,0,.048.05.05,0,0,1-.014.017c-.394.317-2.358,1.037-5.952,1.616a64.494,64.494,0,0,1-9.173.658Zm-14.878-2.18.235.088a24.076,24.076,0,0,0,5.873,1.436,62.41,62.41,0,0,0,8.77.556h.079a64.365,64.365,0,0,0,9.159-.657c3.478-.561,5.412-1.247,5.87-1.569l-.208-.344a16.284,16.284,0,0,1-5.715,1.607,62.788,62.788,0,0,1-9.105.662h-.085a62.98,62.98,0,0,1-8.738-.535,21.159,21.159,0,0,1-5.979-1.5c-.053.087-.1.174-.154.261" transform="translate(-138.318 -166.314)"/>
    <path id="Path_155" data-name="Path 155" d="M146.715,253.313c3.265,1.749,10.511,2.622,17.366,2.672,6.242,0,14.372-.987,17.411-2.6l-.086-1.756c-.949,1.488-9.661,2.928-17.395,2.882s-14.916-1.229-17.313-2.772l.016,1.577" transform="translate(-130.316 -209.48)" fill="#fffa00"/>
    <path id="Path_156" data-name="Path 156" d="M163.928,255.787h-.093c-6.074-.044-13.831-.771-17.39-2.678a.05.05,0,0,1-.027-.047l-.016-1.574a.05.05,0,0,1,.077-.043c2.418,1.556,9.687,2.718,17.286,2.764,7.662.04,16.42-1.4,17.352-2.859a.05.05,0,0,1,.093.024l.086,1.756a.05.05,0,0,1-.027.047c-3.055,1.625-11.193,2.6-17.341,2.61m-17.409-2.752c3.554,1.888,11.27,2.608,17.317,2.652,6.127,0,14.28-.965,17.359-2.583l-.078-1.587c-1.307,1.471-9.714,2.838-17.351,2.793-7.535-.045-14.754-1.19-17.261-2.73Z" transform="translate(-130.069 -209.233)"/>
    <path id="Path_157" data-name="Path 157" d="M180.7,252.465v.419c-.456.547-3.321,1.378-6.914,1.965a71.353,71.353,0,0,1-10.743.753,67.414,67.414,0,0,1-10.2-.686,25.434,25.434,0,0,1-7.3-1.956l0-.488c1.593,1.056,5.906,1.823,7.355,2.058a67.026,67.026,0,0,0,10.141.681,71.055,71.055,0,0,0,10.685-.747c2.577-.377,6.249-1.351,6.971-2h0Zm0-1.489v.419c-.456.547-3.321,1.377-6.913,1.965a71.391,71.391,0,0,1-10.743.753,67.4,67.4,0,0,1-10.2-.686,25.419,25.419,0,0,1-7.3-1.956v-.489c1.593,1.056,5.906,1.823,7.355,2.057a66.964,66.964,0,0,0,10.141.681,71.016,71.016,0,0,0,10.685-.748c2.577-.377,6.249-1.351,6.971-2Z" transform="translate(-129.355 -208.94)" fill="#fffa00"/>
    <path id="Path_158" data-name="Path 158" d="M162.793,255.4a67.936,67.936,0,0,1-10.207-.686,25.648,25.648,0,0,1-7.317-1.962.05.05,0,0,1-.025-.043l0-.489a.05.05,0,0,1,.078-.042c1.6,1.058,6.018,1.837,7.335,2.05a67.449,67.449,0,0,0,10.133.68,71.213,71.213,0,0,0,10.678-.747c2.559-.374,6.228-1.343,6.946-1.985a.049.049,0,0,1,.054-.008.05.05,0,0,1,.03.046v.419a.049.049,0,0,1-.012.032c-.474.569-3.395,1.4-6.944,1.983a71.731,71.731,0,0,1-10.751.753m-17.448-2.721a25.609,25.609,0,0,0,7.256,1.935,67.84,67.84,0,0,0,10.192.685,71.616,71.616,0,0,0,10.736-.752c3.442-.563,6.381-1.391,6.871-1.934v-.3c-.894.652-4.428,1.58-6.914,1.943a71.344,71.344,0,0,1-10.693.748,67.537,67.537,0,0,1-10.149-.681c-1.3-.211-5.623-.972-7.3-2.016Zm17.448,1.231a67.919,67.919,0,0,1-10.207-.686,25.622,25.622,0,0,1-7.317-1.962.05.05,0,0,1-.025-.043l0-.488a.05.05,0,0,1,.078-.042c1.6,1.059,6.019,1.837,7.335,2.049a67.375,67.375,0,0,0,10.133.681,71.189,71.189,0,0,0,10.678-.748c2.559-.374,6.227-1.342,6.945-1.985a.051.051,0,0,1,.043-.012.05.05,0,0,1,.036.027.054.054,0,0,1,.005.023v.418a.052.052,0,0,1-.012.032c-.474.568-3.394,1.4-6.944,1.982a71.734,71.734,0,0,1-10.751.753m-17.448-2.721a25.6,25.6,0,0,0,7.256,1.935,67.792,67.792,0,0,0,10.192.685,71.594,71.594,0,0,0,10.736-.752c3.442-.563,6.381-1.391,6.871-1.934v-.3c-.894.652-4.429,1.579-6.914,1.942a71.276,71.276,0,0,1-10.692.749,67.494,67.494,0,0,1-10.149-.682c-1.3-.211-5.621-.97-7.3-2.015Z" transform="translate(-129.107 -208.693)"/>
    <path id="Path_159" data-name="Path 159" d="M174.363,306.3a59.767,59.767,0,0,1-15.29-2.351l.992,1.548a41.054,41.054,0,0,0,14.372,2.322c5.7-.175,10.682-.625,14.19-2.339l1.012-1.607c-2.391,1.131-10.531,2.409-15.276,2.428" transform="translate(-140.602 -252.909)" fill="#fffa00"/>
    <path id="Path_160" data-name="Path 160" d="M173.312,307.637A41.187,41.187,0,0,1,159.8,305.3a.05.05,0,0,1-.023-.019l-.992-1.548a.05.05,0,0,1,0-.056.049.049,0,0,1,.053-.02c.161.039.393.1.69.181A57.753,57.753,0,0,0,174.116,306c4.775-.02,12.9-1.31,15.255-2.423a.05.05,0,0,1,.064.072l-1.012,1.607a.05.05,0,0,1-.02.018c-3.66,1.789-8.993,2.184-14.211,2.344-.291.009-.586.014-.88.014m-13.46-2.427a41.1,41.1,0,0,0,14.337,2.312c5.2-.16,10.514-.553,14.157-2.328l.915-1.454c-2.543,1.1-10.457,2.344-15.145,2.363h0a57.838,57.838,0,0,1-14.614-2.173c-.228-.061-.417-.112-.565-.15Z" transform="translate(-140.354 -252.662)"/>
    <path id="Path_161" data-name="Path 161" d="M187.492,304.107c-.149.228-.3.453-.454.672a40.011,40.011,0,0,1-5.364,1.384,48.6,48.6,0,0,1-8.816.821c-6.645-.087-12.087-1.379-14.648-2.484l-.207-.355.034-.054.35.135A47.1,47.1,0,0,0,172.9,306.6a49.463,49.463,0,0,0,8.644-.812,25.314,25.314,0,0,0,5.833-1.612l.12-.068h0Zm.878-1.453.012.014c-.111.188-.226.38-.343.573a37.308,37.308,0,0,1-6.778,1.517,53.572,53.572,0,0,1-8.326.721,57.1,57.1,0,0,1-15.488-2.29l-.2-.375a65.313,65.313,0,0,0,15.684,2.276,58.013,58.013,0,0,0,8.269-.723,42.7,42.7,0,0,0,6.753-1.511c-.008-.011-.017-.023-.027-.035l.442-.166h0Z" transform="translate(-139.086 -251.896)" fill="#fffa00"/>
    <path id="Path_162" data-name="Path 162" d="M172.621,306.794h0a41.949,41.949,0,0,1-14.666-2.489.048.048,0,0,1-.023-.02l-.207-.355a.048.048,0,0,1,0-.05l.034-.054a.05.05,0,0,1,.058-.019l.35.135a46.629,46.629,0,0,0,14.491,2.368h.133a49.674,49.674,0,0,0,8.5-.811c4.261-.861,5.531-1.448,5.819-1.607l.12-.067a.048.048,0,0,1,.064.068c-.16.245-.309.465-.455.674a.049.049,0,0,1-.023.018,39.816,39.816,0,0,1-5.372,1.386,49.071,49.071,0,0,1-8.824.822m-14.614-2.571c2.727,1.173,8.3,2.392,14.615,2.474a49.007,49.007,0,0,0,8.806-.82,39.7,39.7,0,0,0,5.343-1.377c.109-.156.221-.319.337-.495a25.557,25.557,0,0,1-5.8,1.59,49.723,49.723,0,0,1-8.52.813h-.134a46.744,46.744,0,0,1-14.524-2.374l-.307-.119Zm14.691,1.065h0a57.52,57.52,0,0,1-15.5-2.292.048.048,0,0,1-.028-.024l-.2-.375a.048.048,0,0,1,0-.052.047.047,0,0,1,.05-.017A65.049,65.049,0,0,0,172.7,304.8a54.97,54.97,0,0,0,7.534-.621l.727-.1a43.21,43.21,0,0,0,6.677-1.488l.007,0a.055.055,0,0,1,0-.02.049.049,0,0,1,.03-.033l.442-.166a.048.048,0,0,1,.058.019l0,.007a.068.068,0,0,1,.008.058c-.111.189-.226.38-.344.573a.047.047,0,0,1-.025.02,38.056,38.056,0,0,1-6.787,1.519c-.34.047-.661.093-.976.139a49.878,49.878,0,0,1-7.356.582h0m-15.455-2.378a57.484,57.484,0,0,0,15.455,2.281,49.828,49.828,0,0,0,7.343-.581c.315-.046.636-.093.976-.139a38.084,38.084,0,0,0,6.752-1.509c.095-.155.187-.31.278-.463l-.282.106a.049.049,0,0,1,0,.027.048.048,0,0,1-.031.031l-.067.021a43.332,43.332,0,0,1-6.692,1.492l-.728.1a55.1,55.1,0,0,1-7.547.622,65.027,65.027,0,0,1-15.592-2.251Z" transform="translate(-138.849 -251.658)"/>
    <path id="Path_163" data-name="Path 163" d="M163.943,153.147a17.312,17.312,0,1,0,17.442,17.283,17.364,17.364,0,0,0-17.442-17.283m11.151,28.2a16.324,16.324,0,0,1-11.142,4.642,15.545,15.545,0,0,1-15.478-15.645c.3-5.386,2.4-9.141,5.465-11.719a16.387,16.387,0,0,1,10.538-3.753,16.147,16.147,0,0,1,11.676,5.828c2.077,2.5,2.98,5.213,3.457,9.324h0a16.74,16.74,0,0,1-4.517,11.324" transform="translate(-130.251 -127.624)" fill="#fffa00"/>
    <path id="Path_164" data-name="Path 164" d="M163.75,187.571a17.362,17.362,0,1,1,17.438-17.389,17.4,17.4,0,0,1-17.438,17.389m-.055-34.622a17.261,17.261,0,1,0,17.392,17.233,17.3,17.3,0,0,0-17.392-17.233m-.2,32.839a15.6,15.6,0,0,1-15.321-15.7c.273-4.97,2.118-8.924,5.483-11.758a16.4,16.4,0,0,1,10.228-3.768q.173,0,.344,0a16.278,16.278,0,0,1,11.714,5.846c1.993,2.4,2.965,5.019,3.468,9.35a16.723,16.723,0,0,1-4.532,11.366,16.326,16.326,0,0,1-11.176,4.656l-.208,0m.39-31.122a16.3,16.3,0,0,0-10.164,3.745,15.722,15.722,0,0,0-5.448,11.683A15.495,15.495,0,0,0,163.7,185.686a16.228,16.228,0,0,0,11.108-4.628,16.612,16.612,0,0,0,4.5-11.287c-.5-4.3-1.466-6.911-3.445-9.292a16.176,16.176,0,0,0-11.639-5.809q-.17,0-.341,0" transform="translate(-130.003 -127.377)"/>
    <path id="Path_165" data-name="Path 165" d="M164.144,152.795a17.367,17.367,0,1,1-17.338,17.394,17.4,17.4,0,0,1,17.338-17.394m-16.955,17.394a16.983,16.983,0,1,0,16.956-17.012,17.053,17.053,0,0,0-16.956,17.012" transform="translate(-130.406 -127.332)" fill="#fffa00"/>
    <path id="Path_166" data-name="Path 166" d="M163.952,187.332a17.417,17.417,0,1,1,17.388-17.444,17.436,17.436,0,0,1-17.388,17.444M163.9,152.6a17.317,17.317,0,1,0,17.342,17.289A17.336,17.336,0,0,0,163.9,152.6m.054,34.351a17.1,17.1,0,1,1,12.011-5.023,16.912,16.912,0,0,1-12.011,5.023M163.9,152.98a16.934,16.934,0,1,0,16.96,16.908A16.953,16.953,0,0,0,163.9,152.98" transform="translate(-130.158 -127.085)"/>
    <path id="Path_167" data-name="Path 167" d="M171.413,161.347a15.908,15.908,0,1,1-15.881,15.933,15.972,15.972,0,0,1,15.881-15.933m-15.5,15.932a15.524,15.524,0,1,0,15.5-15.55,15.588,15.588,0,0,0-15.5,15.55" transform="translate(-137.658 -134.44)" fill="#fffa00"/>
    <path id="Path_168" data-name="Path 168" d="M171.217,192.965a16.022,16.022,0,1,1,11.252-4.706,15.842,15.842,0,0,1-11.252,4.706m-.05-31.816a15.858,15.858,0,1,0,15.881,15.833,15.875,15.875,0,0,0-15.881-15.833m.05,31.434A15.637,15.637,0,1,1,182.2,187.99a15.462,15.462,0,0,1-10.983,4.593m-.049-31.052a15.476,15.476,0,1,0,15.5,15.451,15.492,15.492,0,0,0-15.5-15.451" transform="translate(-137.411 -134.193)"/>
    <path id="Path_169" data-name="Path 169" d="M246.424,152.374l-1.488,0,.057,34.894,1.493,0Z" transform="translate(-211.971 -126.982)" fill="#fffa00"/>
    <path id="Path_170" data-name="Path 170" d="M246.238,187.071l-1.493,0a.051.051,0,0,1-.05-.05l-.057-34.894a.052.052,0,0,1,.015-.036.051.051,0,0,1,.036-.015l1.488,0a.05.05,0,0,1,.05.05l.062,34.894a.05.05,0,0,1-.015.035.05.05,0,0,1-.036.015m-1.443-.1,1.393,0-.062-34.794-1.388,0Z" transform="translate(-211.723 -126.734)"/>
    <path id="Path_171" data-name="Path 171" d="M245.594,151.193h.379l.059,35.3h-.379l-.059-35.3Zm-1.477,0h.382l.056,35.3h-.382l-.056-35.3Z" transform="translate(-211.291 -125.999)" fill="#fffa00"/>
    <path id="Path_172" data-name="Path 172" d="M244.308,186.294h-.382a.05.05,0,0,1-.05-.05l-.056-35.3a.05.05,0,0,1,.05-.05h.381a.05.05,0,0,1,.05.05l.056,35.3a.051.051,0,0,1-.05.05m-.332-.1h.281L244.2,151h-.281Zm1.809.1h-.379a.051.051,0,0,1-.051-.05l-.058-35.3a.049.049,0,0,1,.015-.035.051.051,0,0,1,.035-.015h.379a.05.05,0,0,1,.05.05l.059,35.3a.05.05,0,0,1-.05.05m-.329-.1h.279l-.059-35.2H245.4Z" transform="translate(-211.044 -125.753)"/>
    <path id="Path_173" data-name="Path 173" d="M181.218,236.364l0-1.29-1.052-.977-5.965-1.569-8.6-.863-10.347.542-7.363,1.766-1.486,1.1,0,1.29,3.765-1.7,8.942-1.417,8.594-.013,6.315.692,4.386,1.045Z" transform="translate(-130.073 -192.889)" fill="#fffa00"/>
    <path id="Path_174" data-name="Path 174" d="M180.97,236.168a.051.051,0,0,1-.022-.005l-2.807-1.387-4.376-1.041-6.309-.691-8.588.014-8.935,1.417-3.752,1.692a.05.05,0,0,1-.048,0,.051.051,0,0,1-.023-.042l0-1.29a.051.051,0,0,1,.02-.041l1.486-1.1a.045.045,0,0,1,.018-.008L155,231.912l10.356-.544,8.6.863,5.973,1.571a.051.051,0,0,1,.021.012l1.052.977a.05.05,0,0,1,.016.037l0,1.29a.05.05,0,0,1-.023.043.049.049,0,0,1-.027.008m-13.508-3.225,6.32.692,4.392,1.046,2.745,1.355,0-1.187-1.027-.953-5.953-1.566-8.588-.862-10.339.543-7.344,1.762-1.457,1.083,0,1.187,3.694-1.664,8.955-1.421Z" transform="translate(-129.826 -192.643)"/>
    <path id="Path_175" data-name="Path 175" d="M163.109,232.419a60.215,60.215,0,0,1,11.238.985c3.258.646,5.551,1.457,6.336,2.37v.453c-.947-1.137-4.032-1.966-6.409-2.44a59.869,59.869,0,0,0-11.164-.977,62.115,62.115,0,0,0-11.4,1.036c-2.475.5-5.777,1.477-6.187,2.44v-.472c.225-.667,2.683-1.667,6.132-2.363a62.4,62.4,0,0,1,11.451-1.033m0-1.489a60.239,60.239,0,0,1,11.238.985c3.258.646,5.551,1.457,6.336,2.37v.453c-.947-1.137-4.032-1.966-6.408-2.439a59.813,59.813,0,0,0-11.164-.977,61.912,61.912,0,0,0-11.376,1.036c-2.389.457-5.825,1.477-6.207,2.441v-.472c.225-.659,2.733-1.7,6.132-2.363a62.4,62.4,0,0,1,11.451-1.033" transform="translate(-129.34 -192.277)" fill="#fffa00"/>
    <path id="Path_176" data-name="Path 176" d="M145.279,236.088h-.01a.051.051,0,0,1-.04-.049v-.471c.245-.732,2.839-1.74,6.172-2.412a62.741,62.741,0,0,1,11.461-1.034h.115a60.211,60.211,0,0,1,11.132.986c3.4.675,5.6,1.5,6.365,2.387a.052.052,0,0,1,.012.033v.453a.05.05,0,0,1-.089.032c-1-1.2-4.427-2.034-6.38-2.423a59.781,59.781,0,0,0-11.039-.977h-.115a62.247,62.247,0,0,0-11.386,1.035c-2.7.54-5.773,1.524-6.151,2.411a.05.05,0,0,1-.046.03m17.7-3.577a59.869,59.869,0,0,1,11.059.979c1.913.381,5.23,1.186,6.349,2.357v-.3c-.759-.864-2.934-1.673-6.3-2.34a60.117,60.117,0,0,0-11.113-.984h-.115a62.612,62.612,0,0,0-11.442,1.032c-3.7.747-5.9,1.758-6.094,2.33l0,.272c.731-.995,4.138-1.908,6.129-2.307a62.356,62.356,0,0,1,11.405-1.037Zm-17.7,2.088h-.009a.051.051,0,0,1-.041-.049v-.472c.25-.74,2.9-1.77,6.173-2.412a62.759,62.759,0,0,1,11.461-1.034h.115a60.268,60.268,0,0,1,11.132.986c3.4.675,5.6,1.5,6.365,2.387a.053.053,0,0,1,.012.033v.453a.05.05,0,0,1-.033.047.051.051,0,0,1-.056-.015c-1-1.2-4.427-2.033-6.38-2.422a59.73,59.73,0,0,0-11.034-.977h-.12a62.124,62.124,0,0,0-11.367,1.034c-2.735.523-5.827,1.545-6.17,2.41a.05.05,0,0,1-.047.032m17.7-3.577a59.813,59.813,0,0,1,11.054.979c1.913.381,5.23,1.185,6.349,2.357v-.3c-.759-.864-2.934-1.673-6.3-2.34a60.147,60.147,0,0,0-11.113-.985h-.115a62.654,62.654,0,0,0-11.442,1.032c-3.555.7-5.89,1.733-6.094,2.33l0,.268c.7-.957,3.986-1.889,6.149-2.3a62.263,62.263,0,0,1,11.386-1.037Z" transform="translate(-129.093 -192.03)"/>
    <path id="Path_177" data-name="Path 177" d="M173.05,185.914c6.463-.042,12.1.885,14.682,2.2l.943,1.626c-2.244-1.2-8.327-2.451-15.614-2.252-5.937.046-12.28.673-15.461,2.376l1.12-1.88c2.61-1.359,8.77-2.056,14.329-2.072" transform="translate(-139.378 -154.86)" fill="#fffa00"/>
    <path id="Path_178" data-name="Path 178" d="M157.354,189.67a.05.05,0,0,1-.043-.076l1.12-1.88a.052.052,0,0,1,.02-.019c2.716-1.414,9.161-2.062,14.346-2.078h.006c6.224-.04,12,.825,14.706,2.207a.049.049,0,0,1,.02.02l.943,1.626a.05.05,0,0,1-.067.07c-2.354-1.263-8.463-2.441-15.589-2.246-4.174.032-11.728.383-15.439,2.37a.051.051,0,0,1-.023.006m1.156-1.892-1.022,1.715c3.782-1.925,11.2-2.268,15.327-2.3,6.993-.191,13.015.938,15.484,2.178l-.849-1.464c-2.7-1.371-8.442-2.228-14.64-2.189H172.8c-5.166.015-11.584.657-14.294,2.06" transform="translate(-139.131 -154.613)"/>
    <path id="Path_179" data-name="Path 179" d="M172.63,186.549a58.674,58.674,0,0,1,10.082.693c2.639.487,5.155,1.22,5.516,1.615l.28.492a20.208,20.208,0,0,0-5.85-1.728,56.542,56.542,0,0,0-10.033-.677,58.133,58.133,0,0,0-10.166.705,17.934,17.934,0,0,0-5.469,1.714l.272-.521a18.236,18.236,0,0,1,5.123-1.574A59.731,59.731,0,0,1,172.63,186.549Zm0-1.488a57.239,57.239,0,0,1,9.727.66,15.764,15.764,0,0,1,5.037,1.639l.409.647c-.695-.77-3.306-1.5-5.611-1.9a61.943,61.943,0,0,0-9.561-.663,58.16,58.16,0,0,0-9.777.736,15.92,15.92,0,0,0-4.856,1.506l.358-.542a17.37,17.37,0,0,1,4.436-1.348,58.568,58.568,0,0,1,9.839-.734Z" transform="translate(-138.87 -154.151)" fill="#fffa00"/>
    <path id="Path_180" data-name="Path 180" d="M188.259,189.152a.049.049,0,0,1-.027-.008,20.036,20.036,0,0,0-5.832-1.721,55.132,55.132,0,0,0-9.742-.677H172a56.905,56.905,0,0,0-9.781.7,17.847,17.847,0,0,0-5.447,1.705.051.051,0,0,1-.063,0,.05.05,0,0,1-.012-.062l.272-.521a.051.051,0,0,1,.022-.022,18.629,18.629,0,0,1,5.137-1.579,58.386,58.386,0,0,1,10.254-.721h.247a57.929,57.929,0,0,1,9.844.695c2.69.5,5.177,1.228,5.544,1.631l.286.5a.05.05,0,0,1-.009.061.052.052,0,0,1-.034.014m-15.6-2.507a55.252,55.252,0,0,1,9.76.678,22.1,22.1,0,0,1,5.7,1.635l-.184-.325c-.342-.374-2.855-1.106-5.482-1.591a57.837,57.837,0,0,0-9.826-.693h-.246a58.3,58.3,0,0,0-10.236.719,18.565,18.565,0,0,0-5.095,1.562l-.177.338a20.088,20.088,0,0,1,5.327-1.618,57.029,57.029,0,0,1,9.8-.706h.658Zm14.892,1.164a.05.05,0,0,1-.037-.017c-.716-.793-3.454-1.511-5.582-1.886a60.813,60.813,0,0,0-9.553-.662,58.063,58.063,0,0,0-9.767.735,16.33,16.33,0,0,0-4.838,1.5.05.05,0,0,1-.069-.07l.358-.542a.052.052,0,0,1,.019-.017,17.422,17.422,0,0,1,4.449-1.353,58.708,58.708,0,0,1,9.849-.735h.236a56.256,56.256,0,0,1,9.5.662,15.7,15.7,0,0,1,5.058,1.648.059.059,0,0,1,.012.013l.409.647a.05.05,0,0,1-.012.067.051.051,0,0,1-.03.01m-15.172-2.665a60.939,60.939,0,0,1,9.57.664,16.409,16.409,0,0,1,5.376,1.687l-.22-.349a15.7,15.7,0,0,0-5.009-1.624,56.152,56.152,0,0,0-9.48-.66h-.236a58.584,58.584,0,0,0-9.83.733,17.392,17.392,0,0,0-4.41,1.337l-.23.348a18.175,18.175,0,0,1,4.684-1.4,58.183,58.183,0,0,1,9.786-.737" transform="translate(-138.622 -153.903)"/>
    <path id="Path_181" data-name="Path 181" d="M182.193,288a45.321,45.321,0,0,0-8.633-.643c-10.77.143-14.246,2.234-14.669,2.866l-.807-1.311c2.739-1.992,8.6-3.116,15.532-3.013a54.762,54.762,0,0,1,9.318.789L182.193,288" transform="translate(-139.78 -237.96)" fill="#fffa00"/>
    <path id="Path_182" data-name="Path 182" d="M158.643,290.02h0A.05.05,0,0,1,158.6,290l-.807-1.311a.05.05,0,0,1,.013-.067c2.745-2,8.564-3.127,15.562-3.022a54.679,54.679,0,0,1,9.326.79.05.05,0,0,1,.034.074l-.741,1.312a.049.049,0,0,1-.06.023,44.684,44.684,0,0,0-8.616-.641c-10.478.139-14.163,2.15-14.628,2.844a.05.05,0,0,1-.042.022m-.74-1.348.744,1.209c.635-.755,4.431-2.691,14.664-2.828a44.756,44.756,0,0,1,8.607.637l.689-1.219a54.891,54.891,0,0,0-9.24-.775c-6.946-.1-12.72,1.008-15.464,2.976" transform="translate(-139.532 -237.712)"/>
    <path id="Path_183" data-name="Path 183" d="M172.748,286.04a52.212,52.212,0,0,1,8.776.684l-.2.363a45.774,45.774,0,0,0-8.56-.644,41.374,41.374,0,0,0-11.493,1.363c-1.1.309-2.931,1.022-3.116,1.609l-.205-.337c.058-.347,1.162-1.068,3.227-1.652a41.686,41.686,0,0,1,11.577-1.386h0Zm.133-1.508a53.739,53.739,0,0,1,9.427.8l-.214.378a49.16,49.16,0,0,0-9.194-.787,44.128,44.128,0,0,0-12.06,1.429c-1.241.364-3.383,1.149-3.453,1.768l-.205-.362c.046-.562,1.9-1.3,3.568-1.787a44.3,44.3,0,0,1,12.132-1.443Z" transform="translate(-139.03 -236.833)" fill="#fffa00"/>
    <path id="Path_184" data-name="Path 184" d="M157.913,289.225a.048.048,0,0,1-.041-.023l-.2-.337a.049.049,0,0,1-.006-.033c.066-.391,1.231-1.117,3.261-1.69a41.373,41.373,0,0,1,11.589-1.388,52.581,52.581,0,0,1,8.785.685.048.048,0,0,1,.033.071l-.205.363a.048.048,0,0,1-.051.024,45.149,45.149,0,0,0-8.2-.645h-.806a40.374,40.374,0,0,0-11.023,1.362c-1.178.33-2.913,1.037-3.084,1.577a.048.048,0,0,1-.04.034h-.006m-.154-.394.147.242c.33-.586,2.048-1.254,3.11-1.551a40.478,40.478,0,0,1,11.049-1.366h.805a45.312,45.312,0,0,1,8.187.64l.155-.275a52.781,52.781,0,0,0-8.7-.671,41.275,41.275,0,0,0-11.562,1.384c-2.055.581-3.1,1.286-3.189,1.6m-.609-.9a.049.049,0,0,1-.042-.025l-.205-.362a.048.048,0,0,1-.006-.028c.06-.737,2.772-1.587,3.6-1.829a43.508,43.508,0,0,1,12.145-1.445,53.885,53.885,0,0,1,9.436.8.049.049,0,0,1,.033.071l-.214.378a.048.048,0,0,1-.051.023,49.694,49.694,0,0,0-9.185-.786,43.226,43.226,0,0,0-12.046,1.427c-1.605.471-3.36,1.212-3.419,1.727a.048.048,0,0,1-.038.042h-.01m-.155-.42.141.249c.349-.762,3.123-1.6,3.453-1.692a43.321,43.321,0,0,1,12.074-1.431,49.9,49.9,0,0,1,9.169.781l.164-.29a54.073,54.073,0,0,0-9.352-.79,43.417,43.417,0,0,0-12.118,1.441c-2.088.611-3.468,1.288-3.532,1.731" transform="translate(-138.793 -236.595)"/>
    <path id="Path_185" data-name="Path 185" d="M187.2,215.61l-1.291,2.01-3.723-3.3-9.656-6.474L161.646,201.9,156,199.982l1.2-2.233.408-.223,3.509.871,11.585,5.945,6.671,4.2,5.619,4.025,2.284,2.627Z" transform="translate(-138.045 -164.512)" fill="#fffa00"/>
    <path id="Path_186" data-name="Path 186" d="M185.662,217.422a.052.052,0,0,1-.034-.013l-3.724-3.3-9.651-6.47L161.375,201.7l-5.641-1.919a.05.05,0,0,1-.031-.029.051.051,0,0,1,0-.042l1.2-2.233a.048.048,0,0,1,.02-.02l.408-.224a.05.05,0,0,1,.036,0l3.509.871,11.6,5.949,6.675,4.2,5.621,4.027,2.293,2.635a.05.05,0,0,1,.012.042l-.073.417a.051.051,0,0,1-.007.019L185.7,217.4a.051.051,0,0,1-.035.023h-.007M155.822,199.7l5.593,1.9,10.891,5.95,9.66,6.476,3.685,3.261,1.254-1.952.067-.384L184.7,212.35l-5.61-4.017-6.669-4.2-11.581-5.943-3.479-.863-.378.207Z" transform="translate(-137.798 -164.264)"/>
    <path id="Path_187" data-name="Path 187" d="M153.718,199.169c.989-.673,8.272,2.557,15.893,7.137,7.6,4.592,14.867,9.784,14.213,10.759l-.215.339-.1.078c.021-.015.13-.149-.011-.51-.325-1.064-5.479-5.164-14.028-10.307-8.334-4.952-15.278-7.933-15.971-7.077l.218-.419h0Zm31.671,15.546c.624-1.238-6.134-6.312-14.51-11.249-8.569-4.839-14.743-7.685-15.869-6.831l-.25.456c0,.025.009-.031.062-.072a1.1,1.1,0,0,1,.7-.171c1.941.026,7.487,2.568,15.271,7.014,3.41,1.979,14.408,9.008,14.37,10.99,0,.17.014.205-.05.29l.279-.426h0Z" transform="translate(-135.969 -163.646)" fill="#fffa00"/>
    <path id="Path_188" data-name="Path 188" d="M183.266,217.282a.049.049,0,0,1-.039-.018.05.05,0,0,1,0-.069h0c.006-.006.1-.117-.028-.451-.335-1.1-5.785-5.335-14.007-10.283-7.042-4.184-13.548-7.219-15.469-7.216a.56.56,0,0,0-.436.127.05.05,0,0,1-.084-.055l.218-.419a.048.048,0,0,1,.016-.018.785.785,0,0,1,.434-.1c1.944,0,8.758,3.174,15.514,7.233,6.843,4.134,13.941,9.086,14.266,10.552a.349.349,0,0,1-.037.278l-.214.338-.106.087h0a.047.047,0,0,1-.03.011m-29.538-18.138c1.937,0,8.465,3.038,15.521,7.23,8.354,5.026,13.7,9.2,14.051,10.336a.908.908,0,0,1,.074.337l.16-.256a.252.252,0,0,0,.023-.2c-.316-1.423-7.562-6.466-14.22-10.488-6.742-4.05-13.533-7.221-15.462-7.218a.724.724,0,0,0-.367.073l-.123.237a1.019,1.019,0,0,1,.342-.049m31.135,15.8a.048.048,0,0,1-.029-.009.05.05,0,0,1-.013-.069l.027-.042a.3.3,0,0,0,.015-.157V214.6c.038-1.973-11.17-9.1-14.344-10.947-7.751-4.427-13.308-6.981-15.246-7.007h-.039a1,1,0,0,0-.625.158.167.167,0,0,0-.046.057.058.058,0,0,1-.086.018.067.067,0,0,1-.013-.045.056.056,0,0,1,.006-.02l.25-.456a.053.053,0,0,1,.014-.016,1.053,1.053,0,0,1,.636-.161c2.4,0,9.639,3.8,15.288,6.988,7.563,4.458,15.225,9.938,14.53,11.316l-.252.384a.386.386,0,0,1-.032.049.051.051,0,0,1-.04.02M155.271,196.55c1.957.026,7.532,2.585,15.3,7.021,2.245,1.3,14.437,8.872,14.395,11.034v.043l.136-.207c.573-1.137-5.792-6.05-14.494-11.179-8.086-4.566-13.355-6.978-15.238-6.975a.978.978,0,0,0-.567.134l-.122.223a1.352,1.352,0,0,1,.552-.093Z" transform="translate(-135.722 -163.399)"/>
    <path id="Path_189" data-name="Path 189" d="M187.956,198.606a10.492,10.492,0,0,0,10.411,10.388,10.43,10.43,0,0,0,10.412-10.412h0l-.022-13.889-20.825.008.024,13.9Z" transform="translate(-164.59 -153.847)" fill="#fff"/>
    <path id="Path_190" data-name="Path 190" d="M198.077,208.763a10.55,10.55,0,0,1-10.469-10.446l-.025-13.963,20.943-.008.022,13.947a10.488,10.488,0,0,1-10.471,10.47M187.7,184.471l.024,13.845a10.353,10.353,0,0,0,20.706-.023l-.022-13.83Z" transform="translate(-164.299 -153.556)"/>
    <path id="Path_191" data-name="Path 191" d="M190.337,200.8v.008a9.889,9.889,0,0,0,2.953,7.012,9.971,9.971,0,0,0,14.107-.007,9.891,9.891,0,0,0,2.918-7.028h0l-.021-13.474-19.966.028.009,13.46m15.949-9.452.014,8.575-.006.907h0a6.549,6.549,0,0,1-.041.742,5.825,5.825,0,0,1-1.7,3.459,5.964,5.964,0,0,1-4.215,1.75,6.029,6.029,0,0,1-5.948-5.962l-.017-9.475,11.916,0Z" transform="translate(-166.581 -156.024)" fill="#eb0006"/>
    <path id="Path_192" data-name="Path 192" d="M200.13,210.568a10.072,10.072,0,0,1-10.055-9.977l.088-.008h-.089l-.009-13.5,20.055-.028.021,13.518a10.022,10.022,0,0,1-10.011,10m-9.966-9.985v.008a9.945,9.945,0,0,0,19.889-.023l-.021-13.429-19.877.028.009,13.416Zm9.954,6.027a5.956,5.956,0,0,1-4.214-1.778,6.017,6.017,0,0,1-1.779-4.229l-.017-9.519h.045l11.934,0,.026.026v.019l.014,8.575-.006.907a6.513,6.513,0,0,1-.041.748,5.867,5.867,0,0,1-1.716,3.486,5.986,5.986,0,0,1-4.246,1.763M194.2,191.173l.017,9.43a5.929,5.929,0,0,0,1.752,4.166,5.848,5.848,0,0,0,8.334.015,5.779,5.779,0,0,0,1.691-3.433,6.534,6.534,0,0,0,.041-.737l.006-.907-.014-8.53Z" transform="translate(-166.362 -155.805)"/>
    <path id="Path_193" data-name="Path 193" d="M197.949,202.392a1.218,1.218,0,0,1,.714-1.2,1.2,1.2,0,0,1,.741,1.209Z" transform="translate(-172.916 -167.558)" fill="#fffa00"/>
    <path id="Path_194" data-name="Path 194" d="M193.846,201.259l-.118,1.113h.726a.99.99,0,0,1,.712-1.072,1.073,1.073,0,0,1,.72,1.069h.728l-.133-1.121-2.635.011Z" transform="translate(-169.407 -167.606)" fill="#fffa00"/>
    <path id="Path_195" data-name="Path 195" d="M194.257,202.2h-.818L193.57,201l.035-.006,2.674-.011.144,1.209h-.82v-.043a1.029,1.029,0,0,0-.682-1.027.951.951,0,0,0-.662,1.028Zm1.43-.09h.636l-.123-1.033-1.157,0a1.154,1.154,0,0,1,.643,1.03m-2.151,0h.635a1.05,1.05,0,0,1,.624-1.031l-1.15,0Z" transform="translate(-169.167 -167.39)"/>
    <path id="Path_196" data-name="Path 196" d="M192.88,207.911l2.972,0a.14.14,0,0,1,0,.275l-2.972,0a.14.14,0,0,1,0-.275" transform="translate(-168.608 -173.141)" fill="#fffa00"/>
    <path id="Path_197" data-name="Path 197" d="M195.637,208.009l-2.972,0a.183.183,0,0,1,0-.362l2.972,0a.183.183,0,0,1,0,.362m-2.972-.27c-.038,0-.07.043-.07.094s.032.093.07.093l2.972,0c.038,0,.07-.043.07-.093s-.032-.094-.07-.094Z" transform="translate(-168.392 -172.925)"/>
    <path id="Path_198" data-name="Path 198" d="M199.839,204.221a.766.766,0,0,1,.4-.746.777.777,0,0,1,.415.744h-.813" transform="translate(-174.487 -169.458)" fill="#fffa00"/>
    <path id="Path_199" data-name="Path 199" d="M200.48,204.049h-.857v-.044h-.044a.875.875,0,0,1,.291-.7s.118-.1.158-.089a.8.8,0,0,1,.452.787Zm-.812-.086h.723a.427.427,0,1,0-.723,0" transform="translate(-174.271 -169.244)"/>
    <path id="Path_200" data-name="Path 200" d="M193.262,198.549l2.849,0a.125.125,0,0,1,0,.247l-2.849,0a.125.125,0,0,1,0-.247" transform="translate(-168.929 -165.36)" fill="#fffa00"/>
    <path id="Path_201" data-name="Path 201" d="M195.9,198.62l-2.849,0a.168.168,0,0,1,0-.335l2.849,0a.168.168,0,0,1,0,.335m-2.85-.243a.081.081,0,0,0,0,.16l2.849,0a.081.081,0,0,0,0-.16Z" transform="translate(-168.713 -165.144)"/>
    <path id="Path_202" data-name="Path 202" d="M193.64,200.026l2.725,0a.125.125,0,0,1,0,.247l-2.725,0a.125.125,0,0,1,0-.247" transform="translate(-169.248 -166.587)" fill="#fffa00"/>
    <path id="Path_203" data-name="Path 203" d="M196.15,200.1l-2.725,0a.168.168,0,0,1,0-.335l2.725,0a.169.169,0,0,1,0,.335m-2.725-.243a.073.073,0,0,0-.06.08c0,.043.028.08.061.08l2.725,0c.033,0,.061-.037.06-.08s-.028-.079-.061-.079Z" transform="translate(-169.031 -166.371)"/>
    <path id="Path_204" data-name="Path 204" d="M199.351,189.012h.215v.153h.157v-.156h.22v.155h.157v-.156h.221v.353a.091.091,0,0,1-.1.091h-.774a.1.1,0,0,1-.1-.092v-.349h0Z" transform="translate(-174.081 -157.432)" fill="#fffa00"/>
    <path id="Path_205" data-name="Path 205" d="M200.009,189.279h-.774a.142.142,0,0,1-.144-.136v-.393h.3v.153h.069v-.156h.308v.155h.07v-.156h.308v.4a.135.135,0,0,1-.14.135m-.831-.44v.3a.056.056,0,0,0,.056.048h.774a.048.048,0,0,0,.052-.048v-.309h-.133v.156h-.245v-.155h-.133v.156h-.245v-.153Z" transform="translate(-173.864 -157.215)"/>
    <path id="Path_206" data-name="Path 206" d="M200.688,191.813l.05,1.131-.755,0,.048-1.132Z" transform="translate(-174.607 -159.763)" fill="#fffa00"/>
    <path id="Path_207" data-name="Path 207" d="M200.56,192.771l-.846,0,.052-1.219.74,0Zm-.755-.089h.663l-.047-1.044-.572,0Z" transform="translate(-174.383 -159.545)"/>
    <path id="Path_208" data-name="Path 208" d="M195.262,194.938l.024.61h-.723l.019-.61h.68Z" transform="translate(-170.101 -162.361)" fill="#fffa00"/>
    <path id="Path_209" data-name="Path 209" d="M194.294,195.376l.022-.7h.765l.028.7Zm.107-.61-.017.523h.633l-.021-.522Z" transform="translate(-169.878 -162.145)"/>
    <path id="Path_210" data-name="Path 210" d="M206.285,194.921l.024.61-.723,0,.02-.61h.68Z" transform="translate(-179.263 -162.347)" fill="#fffa00"/>
    <path id="Path_211" data-name="Path 211" d="M205.318,195.359l.022-.7h.765l.028.7Zm.107-.611-.017.523h.633l-.021-.522Z" transform="translate(-179.041 -162.13)"/>
    <path id="Path_212" data-name="Path 212" d="M193.879,192.306h.21v.153h.154V192.3h.216v.156h.154V192.3h.216v.353a.09.09,0,0,1-.094.091h-.757a.1.1,0,0,1-.1-.092v-.349h0Z" transform="translate(-169.533 -160.17)" fill="#fffa00"/>
    <path id="Path_213" data-name="Path 213" d="M194.52,192.574h-.757a.141.141,0,0,1-.142-.136v-.393h.3v.153h.066v-.157h.3v.156h.066v-.157h.3v.4a.135.135,0,0,1-.138.135m-.812-.44v.305a.054.054,0,0,0,.054.048h.757a.047.047,0,0,0,.05-.047v-.309h-.128v.156H194.2v-.156h-.128v.156h-.242v-.153Z" transform="translate(-169.317 -159.954)"/>
    <path id="Path_214" data-name="Path 214" d="M204.9,192.289h.21v.153h.154v-.156h.216v.156h.154v-.156h.216v.353a.09.09,0,0,1-.094.091H205a.1.1,0,0,1-.1-.092v-.349h0Z" transform="translate(-178.697 -160.156)" fill="#fffa00"/>
    <path id="Path_215" data-name="Path 215" d="M205.544,192.556h-.757a.141.141,0,0,1-.142-.136v-.393h.3v.153h.066v-.157h.3v.156h.066v-.157h.3v.4a.133.133,0,0,1-.138.135m-.812-.44v.305a.054.054,0,0,0,.054.048h.757a.047.047,0,0,0,.05-.047v-.309h-.128v.157h-.242v-.156H205.1v.156h-.242v-.153Z" transform="translate(-178.481 -159.94)"/>
    <path id="Path_216" data-name="Path 216" d="M201.78,193.536a.076.076,0,1,1,.152,0v.269h-.152Z" transform="translate(-176.1 -161.127)"/>
    <path id="Path_217" data-name="Path 217" d="M196.246,195.874a.073.073,0,1,1,.145,0v.208h-.145v-.208" transform="translate(-171.5 -163.072)"/>
    <path id="Path_218" data-name="Path 218" d="M207.3,195.856a.073.073,0,1,1,.145,0v.208H207.3v-.208" transform="translate(-180.691 -163.058)"/>
    <path id="Path_219" data-name="Path 219" d="M198.025,250.521a1.219,1.219,0,0,1,.714-1.2,1.2,1.2,0,0,1,.742,1.209Z" transform="translate(-172.979 -207.563)" fill="#fffa00"/>
    <path id="Path_220" data-name="Path 220" d="M193.921,249.388,193.8,250.5h.726a.989.989,0,0,1,.712-1.071,1.072,1.072,0,0,1,.72,1.069h.728l-.133-1.121-2.635.011h0Z" transform="translate(-169.47 -207.612)" fill="#fffa00"/>
    <path id="Path_221" data-name="Path 221" d="M194.334,250.329h-.819l.127-1.2,2.713-.011.144,1.209h-.82v-.043a1.029,1.029,0,0,0-.682-1.027.95.95,0,0,0-.662,1.028Zm1.43-.09h.636l-.123-1.033-1.157,0a1.152,1.152,0,0,1,.643,1.029m-2.151,0h.634a1.051,1.051,0,0,1,.624-1.031l-1.149,0Z" transform="translate(-169.23 -207.396)"/>
    <path id="Path_222" data-name="Path 222" d="M192.956,256.04l2.972,0a.14.14,0,0,1,0,.275l-2.972,0a.14.14,0,0,1,0-.275" transform="translate(-168.671 -213.146)" fill="#fffa00"/>
    <path id="Path_223" data-name="Path 223" d="M195.712,256.138l-2.972,0a.183.183,0,0,1,0-.362l2.972,0a.183.183,0,0,1,0,.362m-2.973-.27c-.038,0-.07.043-.07.094s.032.093.07.093l2.972,0c.038,0,.07-.043.07-.093s-.032-.094-.07-.094Z" transform="translate(-168.455 -212.931)"/>
    <path id="Path_224" data-name="Path 224" d="M199.915,252.35a.766.766,0,0,1,.4-.746.777.777,0,0,1,.415.744h-.813" transform="translate(-174.55 -209.463)" fill="#fffa00"/>
    <path id="Path_225" data-name="Path 225" d="M200.556,252.178H199.7v-.044h-.044a.875.875,0,0,1,.29-.7s.118-.1.158-.089a.8.8,0,0,1,.452.787Zm-.812-.086h.723a.426.426,0,1,0-.723,0" transform="translate(-174.334 -209.249)"/>
    <path id="Path_226" data-name="Path 226" d="M193.338,246.679l2.849,0a.124.124,0,0,1,0,.247l-2.849,0a.125.125,0,0,1,0-.247" transform="translate(-168.992 -205.366)" fill="#fffa00"/>
    <path id="Path_227" data-name="Path 227" d="M195.971,246.75l-2.849,0a.168.168,0,0,1,0-.335l2.849,0a.168.168,0,0,1,0,.335m-2.85-.243a.081.081,0,0,0,0,.159l2.849,0a.081.081,0,0,0,0-.159Z" transform="translate(-168.775 -205.15)"/>
    <path id="Path_228" data-name="Path 228" d="M193.717,248.154l2.725,0a.125.125,0,0,1,0,.247l-2.725,0a.125.125,0,0,1,0-.247" transform="translate(-169.312 -206.592)" fill="#fffa00"/>
    <path id="Path_229" data-name="Path 229" d="M196.226,248.224l-2.725,0a.168.168,0,0,1,0-.334l2.725,0a.169.169,0,0,1,0,.335m-2.726-.243c-.033,0-.061.037-.06.08a.073.073,0,0,0,.061.08l2.725,0c.033,0,.06-.036.06-.079s-.028-.08-.061-.08Z" transform="translate(-169.095 -206.376)"/>
    <path id="Path_230" data-name="Path 230" d="M199.427,237.142h.215v.153h.157v-.156h.22v.156h.157v-.156h.221v.353a.092.092,0,0,1-.1.092h-.774a.1.1,0,0,1-.1-.092v-.349h0Z" transform="translate(-174.144 -197.439)" fill="#fffa00"/>
    <path id="Path_231" data-name="Path 231" d="M200.085,237.41h-.774a.142.142,0,0,1-.144-.136v-.393h.3v.153h.069v-.156h.308v.155h.07v-.156h.308v.4a.135.135,0,0,1-.14.135m-.831-.44v.3a.056.056,0,0,0,.056.048h.774a.048.048,0,0,0,.052-.048v-.309H200v.156h-.245v-.156h-.133v.156h-.245v-.153Z" transform="translate(-173.927 -197.222)"/>
    <path id="Path_232" data-name="Path 232" d="M200.765,239.942l.05,1.132-.755,0,.048-1.132Z" transform="translate(-174.671 -199.768)" fill="#fffa00"/>
    <path id="Path_233" data-name="Path 233" d="M200.636,240.9l-.846,0,.052-1.22.74,0Zm-.755-.089.663,0-.046-1.044-.572,0Z" transform="translate(-174.446 -199.551)"/>
    <path id="Path_234" data-name="Path 234" d="M195.338,243.067l.024.61-.723,0,.019-.61h.68Z" transform="translate(-170.164 -202.367)" fill="#fffa00"/>
    <path id="Path_235" data-name="Path 235" d="M194.37,243.506l.022-.7h.765l.027.7Zm.107-.61-.017.523h.633l-.021-.522Z" transform="translate(-169.941 -202.151)"/>
    <path id="Path_236" data-name="Path 236" d="M206.362,243.049l.024.61h-.723l.02-.61h.68Z" transform="translate(-179.327 -202.352)" fill="#fffa00"/>
    <path id="Path_237" data-name="Path 237" d="M205.393,243.488l.022-.7h.765l.027.7Zm.107-.61-.017.523h.633l-.021-.522Z" transform="translate(-179.103 -202.136)"/>
    <path id="Path_238" data-name="Path 238" d="M193.956,240.435h.21v.153h.154v-.157h.216v.156h.154v-.156h.216v.353a.09.09,0,0,1-.094.091h-.757a.1.1,0,0,1-.1-.092v-.349h0Z" transform="translate(-169.597 -200.176)" fill="#fffa00"/>
    <path id="Path_239" data-name="Path 239" d="M194.6,240.7h-.757a.141.141,0,0,1-.142-.136v-.393h.3v.153h.066v-.157h.3v.156h.066v-.157h.3v.4a.135.135,0,0,1-.138.135m-.812-.44v.3a.055.055,0,0,0,.054.048h.757a.047.047,0,0,0,.05-.047v-.309h-.128v.156h-.242v-.156h-.128v.156h-.242v-.153Z" transform="translate(-169.381 -199.96)"/>
    <path id="Path_240" data-name="Path 240" d="M204.979,240.418h.21v.153h.154v-.157h.216v.156h.154v-.156h.216v.353a.091.091,0,0,1-.094.091h-.757a.1.1,0,0,1-.1-.092v-.349h0Z" transform="translate(-178.759 -200.162)" fill="#fffa00"/>
    <path id="Path_241" data-name="Path 241" d="M205.62,240.686h-.757a.141.141,0,0,1-.142-.136v-.393h.3v.153h.066v-.157h.3v.156h.066v-.157h.3v.4a.135.135,0,0,1-.138.135m-.812-.44v.3a.054.054,0,0,0,.054.048h.757a.047.047,0,0,0,.05-.047v-.309h-.128v.156H205.3v-.156h-.128v.156h-.242v-.153Z" transform="translate(-178.544 -199.946)"/>
    <path id="Path_242" data-name="Path 242" d="M201.856,241.666a.076.076,0,1,1,.152,0v.27h-.152v-.269" transform="translate(-176.163 -201.133)"/>
    <path id="Path_243" data-name="Path 243" d="M196.322,244a.073.073,0,1,1,.145,0v.208h-.145V244" transform="translate(-171.563 -203.078)"/>
    <path id="Path_244" data-name="Path 244" d="M207.379,243.986a.073.073,0,1,1,.145,0v.208h-.145v-.208" transform="translate(-180.754 -203.063)"/>
    <path id="Path_245" data-name="Path 245" d="M214.766,299.38a1.218,1.218,0,0,1-.35-1.354,1.2,1.2,0,0,1,1.38.326Z" transform="translate(-186.539 -247.971)" fill="#fffa00"/>
    <path id="Path_246" data-name="Path 246" d="M209.422,294.833l.707.868.512-.515a.99.99,0,0,1-.259-1.26,1.072,1.072,0,0,1,1.266.243l.512-.517-.889-.7-1.849,1.877h0Z" transform="translate(-182.452 -243.835)" fill="#fffa00"/>
    <path id="Path_247" data-name="Path 247" d="M209.836,295.478l-.762-.936,1.9-1.933.959.75-.577.583-.031-.03a1.118,1.118,0,0,0-.781-.339.925.925,0,0,0-.428.1.95.95,0,0,0,.263,1.194l.031.031Zm-.645-.93.651.8.447-.45a1.134,1.134,0,0,1-.358-.909.967.967,0,0,1,.062-.256Zm1.356-1.062a1.187,1.187,0,0,1,.81.334l.448-.452-.82-.641-.813.826a1.1,1.1,0,0,1,.375-.066" transform="translate(-182.163 -243.547)"/>
    <path id="Path_248" data-name="Path 248" d="M213.284,298.9l2.091-2.112a.14.14,0,0,1,.2.193l-2.091,2.112a.14.14,0,0,1-.2-.193" transform="translate(-185.639 -246.993)" fill="#fffa00"/>
    <path id="Path_249" data-name="Path 249" d="M213.19,298.956a.2.2,0,0,1-.194-.193.146.146,0,0,1,.041-.1l2.091-2.112a.176.176,0,0,1,.24.015.171.171,0,0,1,.018.24l-2.091,2.112a.146.146,0,0,1-.1.042m2.043-2.364a.06.06,0,0,0-.043.016l-2.091,2.112a.058.058,0,0,0-.016.043.1.1,0,0,0,.033.073c.031.03.074.058.115.016l2.091-2.112a.085.085,0,0,0-.017-.115.106.106,0,0,0-.073-.032" transform="translate(-185.423 -246.786)"/>
    <path id="Path_250" data-name="Path 250" d="M216.522,300.713a.767.767,0,0,1-.249-.807.778.778,0,0,1,.821.23Z" transform="translate(-188.12 -249.581)" fill="#fffa00"/>
    <path id="Path_251" data-name="Path 251" d="M216.306,300.56l-.031-.031a.876.876,0,0,1-.292-.7.568.568,0,0,1,.035-.163h0l.005-.008.008-.008h0a.621.621,0,0,1,.246-.047.89.89,0,0,1,.631.279l.031.031Zm-.215-.835a.737.737,0,0,0,.215.711l.509-.514a.717.717,0,0,0-.724-.2" transform="translate(-187.904 -249.366)"/>
    <path id="Path_252" data-name="Path 252" d="M206.894,292.474l2-2.025a.125.125,0,0,1,.176.174l-2,2.025a.124.124,0,0,1-.176-.174" transform="translate(-180.327 -241.727)" fill="#fffa00"/>
    <path id="Path_253" data-name="Path 253" d="M206.78,292.516a.175.175,0,0,1-.122-.052.161.161,0,0,1-.011-.227l2-2.025a.166.166,0,0,1,.227.009.161.161,0,0,1,.011.227l-2,2.025a.145.145,0,0,1-.1.042m1.975-2.258a.059.059,0,0,0-.042.016l-2,2.025a.075.075,0,0,0,.011.1.076.076,0,0,0,.1.01l2-2.025a.075.075,0,0,0-.011-.1.086.086,0,0,0-.06-.026" transform="translate(-180.111 -241.522)"/>
    <path id="Path_254" data-name="Path 254" d="M208.2,293.707l1.917-1.937a.125.125,0,0,1,.176.174l-1.917,1.937a.125.125,0,0,1-.175-.174" transform="translate(-181.415 -242.827)" fill="#fffa00"/>
    <path id="Path_255" data-name="Path 255" d="M208.093,293.744a.182.182,0,0,1-.178-.177.139.139,0,0,1,.039-.1l1.917-1.937a.163.163,0,0,1,.223.013.159.159,0,0,1,.015.223l-1.917,1.937a.139.139,0,0,1-.1.04m1.878-2.165a.051.051,0,0,0-.037.014l-1.917,1.937a.052.052,0,0,0-.014.037.089.089,0,0,0,.028.062c.026.026.064.049.1.013l1.917-1.937a.073.073,0,0,0-.014-.1.09.09,0,0,0-.062-.027" transform="translate(-181.2 -242.619)"/>
    <path id="Path_256" data-name="Path 256" d="M204.18,288.523l.152-.153.109.108.11-.112-.111-.11.156-.156.111.109.111-.112-.111-.11.155-.157.25.249a.091.091,0,0,1,0,.133l-.544.55a.1.1,0,0,1-.136.006l-.248-.245h0Z" transform="translate(-178.095 -239.575)" fill="#fffa00"/>
    <path id="Path_257" data-name="Path 257" d="M204.227,288.531a.13.13,0,0,1-.093-.037l-.271-.267.014-.029.191-.2.109.107.049-.049-.111-.11.217-.218.11.109.049-.05-.111-.11.217-.219.282.279a.134.134,0,0,1,0,.194l-.544.55a.148.148,0,0,1-.1.044m-.248-.313.217.214c.033.032.058.01.074-.006l.544-.55a.048.048,0,0,0,0-.07l-.219-.218-.094.094.111.11-.173.174-.111-.109-.094.094.111.11-.172.174-.109-.108Z" transform="translate(-177.832 -239.27)"/>
    <path id="Path_258" data-name="Path 258" d="M207.261,290.485l.838.762-.533.534-.769-.832Z" transform="translate(-180.271 -241.781)" fill="#fffa00"/>
    <path id="Path_259" data-name="Path 259" d="M207.266,291.545l-.829-.9.523-.524.9.821Zm-.707-.894.71.767.468-.469-.773-.7Z" transform="translate(-179.971 -241.482)"/>
    <path id="Path_260" data-name="Path 260" d="M205.559,296.547l.45.413-.509.514-.419-.444Z" transform="translate(-178.844 -246.82)" fill="#fffa00"/>
    <path id="Path_261" data-name="Path 261" d="M205.2,297.238l-.48-.508.538-.543.514.472Zm-.358-.506.359.38.445-.45-.385-.353Z" transform="translate(-178.543 -246.521)"/>
    <path id="Path_262" data-name="Path 262" d="M213.314,288.713l.45.413-.509.514-.419-.444.478-.483h0Z" transform="translate(-185.289 -240.308)" fill="#fffa00"/>
    <path id="Path_263" data-name="Path 263" d="M212.954,289.4l-.48-.508.538-.543.514.472Zm-.357-.506.359.38.445-.45-.385-.353Z" transform="translate(-184.989 -240.009)"/>
    <path id="Path_264" data-name="Path 264" d="M202.661,294.8l.148-.149.109.108.108-.109-.111-.11.152-.153.111.11.109-.11-.111-.11.152-.153.25.248a.09.09,0,0,1,0,.131l-.533.538a.1.1,0,0,1-.134,0l-.248-.245h0Z" transform="translate(-176.832 -244.804)" fill="#fffa00"/>
    <path id="Path_265" data-name="Path 265" d="M202.734,294.807a.133.133,0,0,1-.094-.037l-.266-.263.018-.045.179-.18.109.107.047-.047-.111-.11.214-.215.111.11.047-.047-.111-.11.214-.215.282.279a.133.133,0,0,1,0,.193l-.533.538a.147.147,0,0,1-.1.042m-.249-.314.217.214a.045.045,0,0,0,.073,0l.533-.538a.047.047,0,0,0,0-.069l-.219-.217-.09.091.111.11-.17.172-.111-.11-.09.091.111.11-.17.171-.109-.108Z" transform="translate(-176.594 -244.498)"/>
    <path id="Path_266" data-name="Path 266" d="M210.417,286.964l.148-.149.109.108.108-.11-.111-.11.152-.153.111.11.108-.11-.111-.11.152-.153.25.249a.09.09,0,0,1,0,.131l-.533.538a.1.1,0,0,1-.135,0l-.248-.245h0Z" transform="translate(-183.279 -238.292)" fill="#fffa00"/>
    <path id="Path_267" data-name="Path 267" d="M210.422,286.972a.13.13,0,0,1-.094-.037l-.28-.276.21-.212.109.108.047-.047-.111-.11.214-.215.111.109.047-.047-.111-.11.214-.215.282.279a.133.133,0,0,1,.04.094.14.14,0,0,1-.042.1l-.532.538a.145.145,0,0,1-.1.042m-.249-.314.217.214a.045.045,0,0,0,.073,0l.533-.538a.054.054,0,0,0,.016-.037.045.045,0,0,0-.014-.032l-.219-.218-.09.091.111.11-.17.172-.111-.11-.09.09.111.11-.17.172-.109-.108Z" transform="translate(-182.973 -237.987)"/>
    <path id="Path_268" data-name="Path 268" d="M209.236,293a.076.076,0,1,1,.107-.108l.192.19-.107.108Z" transform="translate(-182.274 -243.761)"/>
    <path id="Path_269" data-name="Path 269" d="M207,298.593a.073.073,0,1,1,.1-.1l.148.147-.1.1-.148-.147" transform="translate(-180.413 -248.412)"/>
    <path id="Path_270" data-name="Path 270" d="M214.774,290.734a.073.073,0,1,1,.1-.1l.148.146-.1.1-.148-.146" transform="translate(-186.879 -241.88)"/>
    <path id="Path_271" data-name="Path 271" d="M245.449,202.317a1.218,1.218,0,0,1,.714-1.2,1.2,1.2,0,0,1,.742,1.209Z" transform="translate(-212.398 -167.496)" fill="#fffa00"/>
    <path id="Path_272" data-name="Path 272" d="M241.345,201.184l-.118,1.113h.726a.99.99,0,0,1,.712-1.072,1.072,1.072,0,0,1,.72,1.069h.728l-.133-1.121-2.635.011Z" transform="translate(-208.889 -167.544)" fill="#fffa00"/>
    <path id="Path_273" data-name="Path 273" d="M241.757,202.124h-.819l.127-1.2,2.713-.012.143,1.209h-.82v-.043a1.029,1.029,0,0,0-.682-1.027.951.951,0,0,0-.662,1.028Zm1.43-.09h.636L243.7,201l-1.157,0a1.154,1.154,0,0,1,.643,1.03m-2.151,0h.634a1.051,1.051,0,0,1,.624-1.031l-1.15,0Z" transform="translate(-208.649 -167.327)"/>
    <path id="Path_274" data-name="Path 274" d="M240.379,207.836l2.972,0a.14.14,0,0,1,0,.275l-2.972,0a.14.14,0,0,1,0-.275" transform="translate(-208.089 -173.078)" fill="#fffa00"/>
    <path id="Path_275" data-name="Path 275" d="M243.135,207.934l-2.972,0a.183.183,0,0,1,0-.362l2.972,0a.183.183,0,0,1,0,.362m-2.973-.27c-.038,0-.07.043-.07.094s.032.093.07.093l2.972,0c.038,0,.07-.043.07-.093s-.032-.093-.07-.093Z" transform="translate(-207.873 -172.863)"/>
    <path id="Path_276" data-name="Path 276" d="M247.339,204.146a.766.766,0,0,1,.4-.746.778.778,0,0,1,.415.744h-.813" transform="translate(-213.969 -169.395)" fill="#fffa00"/>
    <path id="Path_277" data-name="Path 277" d="M247.98,203.974h-.857v-.044h-.044a.875.875,0,0,1,.291-.7s.117-.1.158-.089a.788.788,0,0,1,.452.787Zm-.812-.086h.723a.427.427,0,1,0-.723,0" transform="translate(-213.753 -169.181)"/>
    <path id="Path_278" data-name="Path 278" d="M240.761,198.474l2.849,0a.125.125,0,0,1,0,.247l-2.849,0a.125.125,0,0,1,0-.247" transform="translate(-208.411 -165.296)" fill="#fffa00"/>
    <path id="Path_279" data-name="Path 279" d="M243.4,198.545l-2.849,0a.168.168,0,0,1,0-.335l2.849,0a.168.168,0,0,1,0,.335m-2.85-.243a.081.081,0,0,0,0,.16l2.849,0a.081.081,0,0,0,0-.16Z" transform="translate(-208.196 -165.081)"/>
    <path id="Path_280" data-name="Path 280" d="M241.139,199.95l2.725,0a.125.125,0,0,1,0,.247l-2.725,0a.125.125,0,0,1,0-.247" transform="translate(-208.729 -166.524)" fill="#fffa00"/>
    <path id="Path_281" data-name="Path 281" d="M243.649,200.022l-2.725,0a.169.169,0,0,1,0-.335l2.725,0a.169.169,0,0,1,0,.335m-2.726-.243c-.033,0-.06.036-.06.08a.073.073,0,0,0,.061.08l2.725,0c.033,0,.061-.037.061-.08a.073.073,0,0,0-.061-.079Z" transform="translate(-208.513 -166.309)"/>
    <path id="Path_282" data-name="Path 282" d="M246.851,188.937h.215v.153h.157v-.156h.22v.155h.158v-.156h.221v.353a.092.092,0,0,1-.1.091h-.774a.1.1,0,0,1-.1-.092v-.349Z" transform="translate(-213.564 -157.369)" fill="#fffa00"/>
    <path id="Path_283" data-name="Path 283" d="M247.509,189.2h-.774a.143.143,0,0,1-.144-.136v-.393h.3v.153h.069v-.156h.308v.155h.07v-.156h.308v.4a.135.135,0,0,1-.14.135m-.831-.44v.3a.056.056,0,0,0,.056.048h.774a.048.048,0,0,0,.052-.048v-.309h-.133v.156h-.245v-.156h-.133v.156h-.245v-.153Z" transform="translate(-213.347 -157.153)"/>
    <path id="Path_284" data-name="Path 284" d="M248.188,191.737l.05,1.131-.755,0,.048-1.132Z" transform="translate(-214.09 -159.699)" fill="#fffa00"/>
    <path id="Path_285" data-name="Path 285" d="M248.059,192.7l-.846,0,.052-1.219.74,0Zm-.755-.089h.663l-.046-1.044-.572,0Z" transform="translate(-213.865 -159.483)"/>
    <path id="Path_286" data-name="Path 286" d="M242.762,194.863l.024.61h-.723l.019-.61h.68Z" transform="translate(-209.583 -162.299)" fill="#fffa00"/>
    <path id="Path_287" data-name="Path 287" d="M241.794,195.3l.022-.7h.765l.027.7Zm.107-.611-.017.523h.633l-.02-.522Z" transform="translate(-209.36 -162.082)"/>
    <path id="Path_288" data-name="Path 288" d="M253.785,194.846l.024.61-.723,0,.019-.61h.68Z" transform="translate(-218.746 -162.285)" fill="#fffa00"/>
    <path id="Path_289" data-name="Path 289" d="M252.817,195.284l.022-.7h.765l.028.7Zm.107-.611-.017.523h.633l-.021-.522Z" transform="translate(-218.523 -162.068)"/>
    <path id="Path_290" data-name="Path 290" d="M241.379,192.231h.21v.153h.154v-.156h.216v.156h.154v-.157h.216v.353a.09.09,0,0,1-.094.091h-.757a.1.1,0,0,1-.1-.092v-.349h0Z" transform="translate(-209.015 -160.108)" fill="#fffa00"/>
    <path id="Path_291" data-name="Path 291" d="M242.019,192.5h-.757a.141.141,0,0,1-.142-.136v-.393h.3v.153h.066v-.157h.3v.156h.066v-.157h.3v.4a.135.135,0,0,1-.138.135m-.812-.44v.3a.054.054,0,0,0,.054.048h.757a.047.047,0,0,0,.05-.047v-.309h-.128v.156H241.7v-.156h-.128v.156h-.242v-.153Z" transform="translate(-208.799 -159.892)"/>
    <path id="Path_292" data-name="Path 292" d="M252.4,192.214h.21v.153h.154v-.156h.216v.156h.154v-.157h.216v.353a.09.09,0,0,1-.094.091H252.5a.1.1,0,0,1-.1-.092v-.349h0Z" transform="translate(-218.178 -160.094)" fill="#fffa00"/>
    <path id="Path_293" data-name="Path 293" d="M253.043,192.481h-.757a.141.141,0,0,1-.142-.136v-.376l.044-.017h.254v.153h.066v-.156h.3v.156h.066v-.157h.3v.4a.133.133,0,0,1-.138.135m-.813-.44v.305a.054.054,0,0,0,.054.048h.757a.046.046,0,0,0,.05-.047v-.309h-.128v.157h-.242v-.156H252.6v.156h-.242v-.153Z" transform="translate(-217.962 -159.877)"/>
    <path id="Path_294" data-name="Path 294" d="M249.28,193.461a.076.076,0,1,1,.152,0v.269h-.152Z" transform="translate(-215.583 -161.065)"/>
    <path id="Path_295" data-name="Path 295" d="M243.746,195.8a.073.073,0,1,1,.145,0v.208h-.145V195.8" transform="translate(-210.983 -163.01)"/>
    <path id="Path_296" data-name="Path 296" d="M254.8,195.781a.073.073,0,1,1,.145,0v.208H254.8v-.208" transform="translate(-220.173 -162.995)"/>
    <path id="Path_297" data-name="Path 297" d="M294.079,202.24a1.219,1.219,0,0,0-.717-1.2,1.2,1.2,0,0,0-.738,1.211Z" transform="translate(-251.61 -167.433)" fill="#fffa00"/>
    <path id="Path_298" data-name="Path 298" d="M291.132,201.125l.121,1.113-.727,0a.99.99,0,0,0-.715-1.069,1.073,1.073,0,0,0-.716,1.072h-.728l.13-1.122,2.635,0Z" transform="translate(-248.073 -167.502)" fill="#fffa00"/>
    <path id="Path_299" data-name="Path 299" d="M290.242,202.069v-.044a.945.945,0,0,0-.673-1.026,1.036,1.036,0,0,0-.671,1.029v.043h-.82l.14-1.209,2.708,0,.008.033.128,1.167Zm-2.067-.085h.636a1.154,1.154,0,0,1,.64-1.032h-1.156Zm1.526-1.032a1.05,1.05,0,0,1,.628,1.029l.634,0-.112-1.025Z" transform="translate(-247.831 -167.286)"/>
    <path id="Path_300" data-name="Path 300" d="M290.558,207.757l-2.972,0a.14.14,0,0,0,0,.274l2.972,0a.14.14,0,0,0,0-.275" transform="translate(-247.328 -173.017)" fill="#fffa00"/>
    <path id="Path_301" data-name="Path 301" d="M290.343,207.859l-2.972,0a.183.183,0,0,1,0-.362l2.972,0a.183.183,0,0,1,0,.362m-2.972-.27c-.038,0-.07.043-.07.094s.032.093.07.093l2.972,0c.038,0,.07-.043.07-.093s-.032-.094-.07-.094Z" transform="translate(-247.113 -172.801)"/>
    <path id="Path_302" data-name="Path 302" d="M295.351,204.069a.767.767,0,0,0-.4-.744.777.777,0,0,0-.413.746Z" transform="translate(-253.201 -169.333)" fill="#fffa00"/>
    <path id="Path_303" data-name="Path 303" d="M295.177,203.9h-.9v-.044a.8.8,0,0,1,.457-.789.779.779,0,0,1,.444.788Zm-.812-.086h.723a.426.426,0,1,0-.723,0" transform="translate(-252.984 -169.117)"/>
    <path id="Path_304" data-name="Path 304" d="M290.8,198.395l-2.849,0a.125.125,0,0,0,0,.247l2.849,0a.125.125,0,0,0,0-.247" transform="translate(-247.634 -165.235)" fill="#fffa00"/>
    <path id="Path_305" data-name="Path 305" d="M290.581,198.47l-2.849,0a.168.168,0,0,1,0-.335l2.849,0a.168.168,0,0,1,0,.335m-2.85-.243a.081.081,0,0,0,0,.16l2.849,0a.081.081,0,0,0,0-.159Z" transform="translate(-247.417 -165.019)"/>
    <path id="Path_306" data-name="Path 306" d="M291.08,199.872l-2.725,0a.125.125,0,0,0,0,.247l2.725,0a.125.125,0,0,0,0-.247" transform="translate(-247.976 -166.463)" fill="#fffa00"/>
    <path id="Path_307" data-name="Path 307" d="M290.866,199.947l-2.725,0a.169.169,0,0,1,0-.335l2.725,0a.169.169,0,0,1,0,.335m-2.726-.243c-.033,0-.06.036-.06.079s.028.08.061.08l2.725,0c.033,0,.061-.037.061-.08a.073.073,0,0,0-.061-.079Z" transform="translate(-247.76 -166.247)"/>
    <path id="Path_308" data-name="Path 308" d="M295,188.863h-.215v.153h-.157v-.156h-.22v.156h-.157v-.156h-.221v.353a.091.091,0,0,0,.1.091h.774a.1.1,0,0,0,.1-.093v-.349h0Z" transform="translate(-252.779 -157.31)" fill="#fffa00"/>
    <path id="Path_309" data-name="Path 309" d="M294.685,189.132h-.774a.134.134,0,0,1-.14-.135v-.4h.308v.156h.069V188.6l.308,0v.156h.069V188.6h.3V189a.143.143,0,0,1-.144.136m-.827-.443V189a.048.048,0,0,0,.052.047h.774a.056.056,0,0,0,.056-.049v-.3h-.128v.153h-.245v-.156h-.133v.156h-.245v-.156Z" transform="translate(-252.563 -157.093)"/>
    <path id="Path_310" data-name="Path 310" d="M294.754,191.658l-.047,1.132.754,0-.052-1.132Z" transform="translate(-253.342 -159.632)" fill="#fffa00"/>
    <path id="Path_311" data-name="Path 311" d="M294.436,192.618l.05-1.219.74,0,.056,1.219Zm.135-1.132-.043,1.044.663,0-.048-1.044Z" transform="translate(-253.117 -159.416)"/>
    <path id="Path_312" data-name="Path 312" d="M300.335,194.772l-.022.61h.724l-.022-.61h-.68Z" transform="translate(-258.002 -162.223)" fill="#fffa00"/>
    <path id="Path_313" data-name="Path 313" d="M300.859,195.208h-.814l.025-.7h.765Zm-.723-.087h.633l-.018-.523h-.6Z" transform="translate(-257.779 -162.006)"/>
    <path id="Path_314" data-name="Path 314" d="M289.312,194.789l-.022.61h.724l-.021-.61h-.68Z" transform="translate(-248.839 -162.237)" fill="#fffa00"/>
    <path id="Path_315" data-name="Path 315" d="M289.834,195.226h-.814l.025-.7h.765Zm-.723-.087h.633l-.018-.523h-.6Z" transform="translate(-248.615 -162.021)"/>
    <path id="Path_316" data-name="Path 316" d="M300.584,192.138h-.21v.153h-.154v-.156H300v.156h-.154v-.156h-.216v.353a.091.091,0,0,0,.094.091h.757a.1.1,0,0,0,.1-.092v-.349h0Z" transform="translate(-257.437 -160.032)" fill="#fffa00"/>
    <path id="Path_317" data-name="Path 317" d="M300.27,192.407h-.757a.135.135,0,0,1-.138-.135v-.4h.3v.156h.066v-.156l.3,0v.157h.066v-.153h.3v.393a.141.141,0,0,1-.142.136m-.808-.443v.309a.047.047,0,0,0,.05.047h.757a.054.054,0,0,0,.054-.049v-.3H300.2v.153h-.242v-.156h-.128v.156h-.242v-.156Z" transform="translate(-257.221 -159.816)"/>
    <path id="Path_318" data-name="Path 318" d="M289.56,192.156h-.21v.153H289.2v-.156h-.216v.156h-.154v-.157h-.216v.353a.091.091,0,0,0,.094.091h.757a.1.1,0,0,0,.1-.092v-.349Z" transform="translate(-248.274 -160.047)" fill="#fffa00"/>
    <path id="Path_319" data-name="Path 319" d="M289.247,192.425h-.757a.133.133,0,0,1-.138-.135v-.4h.3v.156h.067v-.156h.3v.156h.066V191.9h.3v.393a.141.141,0,0,1-.142.136m-.808-.443v.309a.047.047,0,0,0,.05.047h.757a.054.054,0,0,0,.054-.049v-.3h-.123v.153h-.242v-.156h-.128v.156h-.242v-.156Z" transform="translate(-248.059 -159.831)"/>
    <path id="Path_320" data-name="Path 320" d="M296.619,193.386a.076.076,0,1,0-.152,0v.269h.152Z" transform="translate(-254.805 -161.003)"/>
    <path id="Path_321" data-name="Path 321" d="M302.2,195.706a.073.073,0,1,0-.145,0v.208h.145v-.208" transform="translate(-259.445 -162.933)"/>
    <path id="Path_322" data-name="Path 322" d="M291.138,195.723a.073.073,0,1,0-.145,0v.208h.145v-.208" transform="translate(-250.255 -162.947)"/>
    <path id="Path_323" data-name="Path 323" d="M294.155,250.369a1.219,1.219,0,0,0-.718-1.2,1.2,1.2,0,0,0-.738,1.211Z" transform="translate(-251.674 -207.439)" fill="#fffa00"/>
    <path id="Path_324" data-name="Path 324" d="M291.208,249.256l.121,1.113-.727,0a.989.989,0,0,0-.715-1.069,1.072,1.072,0,0,0-.716,1.071h-.728l.13-1.121,2.635,0h0Z" transform="translate(-248.136 -207.509)" fill="#fffa00"/>
    <path id="Path_325" data-name="Path 325" d="M290.317,250.2v-.044a.943.943,0,0,0-.673-1.026,1.035,1.035,0,0,0-.671,1.028v.043h-.82l.14-1.209L291,249l.131,1.2Zm-2.067-.085h.636a1.153,1.153,0,0,1,.639-1.031H288.37Zm1.526-1.032a1.05,1.05,0,0,1,.627,1.029l.635,0-.112-1.025Z" transform="translate(-247.893 -207.293)"/>
    <path id="Path_326" data-name="Path 326" d="M290.634,255.886l-2.972,0a.14.14,0,0,0,0,.275l2.972,0a.14.14,0,0,0,0-.275" transform="translate(-247.391 -213.022)" fill="#fffa00"/>
    <path id="Path_327" data-name="Path 327" d="M290.418,255.988l-2.972,0a.183.183,0,0,1,0-.362l2.972,0a.183.183,0,0,1,0,.362m-2.973-.27c-.038,0-.07.043-.07.094s.032.093.07.093l2.972,0c.038,0,.07-.043.07-.093s-.032-.094-.07-.094Z" transform="translate(-247.175 -212.806)"/>
    <path id="Path_328" data-name="Path 328" d="M295.425,252.2a.766.766,0,0,0-.4-.744.778.778,0,0,0-.413.746Z" transform="translate(-253.263 -209.338)" fill="#fffa00"/>
    <path id="Path_329" data-name="Path 329" d="M295.253,252.027l-.9,0v-.044a.8.8,0,0,1,.457-.789.779.779,0,0,1,.444.788Zm-.812-.086h.723a.426.426,0,1,0-.723,0" transform="translate(-253.047 -209.123)"/>
    <path id="Path_330" data-name="Path 330" d="M290.873,246.525l-2.849,0a.124.124,0,0,0,0,.247l2.849,0a.124.124,0,0,0,0-.247" transform="translate(-247.696 -205.241)" fill="#fffa00"/>
    <path id="Path_331" data-name="Path 331" d="M290.657,246.6l-2.849,0a.168.168,0,0,1,0-.335l2.849,0a.168.168,0,0,1,0,.335m-2.849-.243a.081.081,0,0,0,0,.159l2.849,0a.081.081,0,0,0,0-.16Z" transform="translate(-247.48 -205.025)"/>
    <path id="Path_332" data-name="Path 332" d="M291.157,248l-2.725,0a.125.125,0,0,0,0,.247l2.725,0a.125.125,0,0,0,0-.247" transform="translate(-248.04 -206.467)" fill="#fffa00"/>
    <path id="Path_333" data-name="Path 333" d="M290.941,248.076l-2.725,0a.169.169,0,0,1,0-.335l2.725,0a.169.169,0,0,1,0,.335m-2.726-.243c-.033,0-.061.036-.061.08s.028.08.061.08l2.725,0c.033,0,.061-.037.061-.08a.073.073,0,0,0-.061-.08Z" transform="translate(-247.823 -206.252)"/>
    <path id="Path_334" data-name="Path 334" d="M295.078,236.992h-.215v.153h-.157v-.156h-.22v.156h-.157v-.156h-.22v.353a.091.091,0,0,0,.1.091h.774a.1.1,0,0,0,.1-.092v-.349h0Z" transform="translate(-252.844 -197.316)" fill="#fffa00"/>
    <path id="Path_335" data-name="Path 335" d="M294.762,237.26h-.774a.135.135,0,0,1-.14-.135v-.4h.308v.156h.07v-.156h.308v.156h.069v-.153h.3v.393a.142.142,0,0,1-.144.136m-.827-.443v.309a.048.048,0,0,0,.053.047h.773a.056.056,0,0,0,.056-.049v-.3h-.128v.153h-.245v-.156h-.132v.156h-.245v-.156Z" transform="translate(-252.627 -197.099)"/>
    <path id="Path_336" data-name="Path 336" d="M294.83,239.788l-.047,1.132.755,0-.052-1.132Z" transform="translate(-253.405 -199.638)" fill="#fffa00"/>
    <path id="Path_337" data-name="Path 337" d="M294.512,240.747l.051-1.219.74,0,.056,1.219Zm.135-1.132-.043,1.044.663,0-.048-1.044Z" transform="translate(-253.18 -199.421)"/>
    <path id="Path_338" data-name="Path 338" d="M300.412,242.9l-.022.61h.724l-.021-.61h-.68Z" transform="translate(-258.066 -202.228)" fill="#fffa00"/>
    <path id="Path_339" data-name="Path 339" d="M300.934,243.337h-.814l.025-.7h.765Zm-.723-.087h.633l-.018-.523h-.6Z" transform="translate(-257.841 -202.011)"/>
    <path id="Path_340" data-name="Path 340" d="M289.388,242.918l-.022.61h.724l-.021-.61h-.68Z" transform="translate(-248.902 -202.242)" fill="#fffa00"/>
    <path id="Path_341" data-name="Path 341" d="M289.911,243.354H289.1l.025-.7h.765Zm-.723-.087h.633l-.018-.523h-.6Z" transform="translate(-248.679 -202.025)"/>
    <path id="Path_342" data-name="Path 342" d="M300.659,240.267h-.21v.153h-.154v-.157h-.216v.156h-.154v-.157h-.216v.353a.09.09,0,0,0,.094.091h.757a.1.1,0,0,0,.1-.092v-.349h0Z" transform="translate(-257.5 -200.038)" fill="#fffa00"/>
    <path id="Path_343" data-name="Path 343" d="M300.346,240.536h-.757a.135.135,0,0,1-.138-.135v-.4h.3v.157h.066v-.156l.3,0v.157h.066v-.153h.3v.393a.141.141,0,0,1-.142.136m-.808-.443v.309a.047.047,0,0,0,.05.047h.757a.054.054,0,0,0,.054-.049v-.3h-.123v.153h-.242v-.156h-.128v.156h-.242v-.156Z" transform="translate(-257.284 -199.821)"/>
    <path id="Path_344" data-name="Path 344" d="M289.637,240.285h-.21v.153h-.154v-.157h-.216v.156H288.9v-.157h-.216v.353a.091.091,0,0,0,.094.091h.757a.1.1,0,0,0,.1-.092v-.349Z" transform="translate(-248.338 -200.053)" fill="#fffa00"/>
    <path id="Path_345" data-name="Path 345" d="M289.322,240.553h-.757a.135.135,0,0,1-.138-.135v-.4h.3v.157h.067v-.156l.3,0v.157h.066v-.153h.3v.393a.141.141,0,0,1-.142.136m-.808-.443v.309a.047.047,0,0,0,.05.047h.757a.054.054,0,0,0,.054-.049v-.3h-.123v.153h-.242v-.156h-.128v.156h-.242v-.157Z" transform="translate(-248.121 -199.835)"/>
    <path id="Path_346" data-name="Path 346" d="M296.695,241.516a.076.076,0,1,0-.152,0v.27h.152v-.269" transform="translate(-254.868 -201.009)"/>
    <path id="Path_347" data-name="Path 347" d="M302.271,243.836a.073.073,0,1,0-.145,0v.208h.145v-.208" transform="translate(-259.509 -202.939)"/>
    <path id="Path_348" data-name="Path 348" d="M291.215,243.853a.073.073,0,1,0-.145,0v.208h.145v-.208" transform="translate(-250.319 -202.953)"/>
    <path id="Path_349" data-name="Path 349" d="M277.544,299.277a1.218,1.218,0,0,0,.346-1.354,1.2,1.2,0,0,0-1.379.33Z" transform="translate(-238.217 -247.886)" fill="#fffa00"/>
    <path id="Path_350" data-name="Path 350" d="M276.572,294.734l-.7.87-.514-.513a.99.99,0,0,0,.255-1.261,1.073,1.073,0,0,0-1.265.247l-.514-.516.887-.7,1.855,1.871Z" transform="translate(-235.989 -243.758)" fill="#fffa00"/>
    <path id="Path_351" data-name="Path 351" d="M275.547,295.382l-.579-.579.031-.031a.944.944,0,0,0,.254-1.2.974.974,0,0,0-.422-.092,1.117,1.117,0,0,0-.78.341l-.031.03-.579-.581.957-.753,1.91,1.927Zm-.455-.579.449.449.649-.8-.8-.812a.994.994,0,0,1,.062.256,1.135,1.135,0,0,1-.355.909m-1.52-1.525.449.451a1.187,1.187,0,0,1,.809-.337,1.083,1.083,0,0,1,.376.066l-.816-.824Z" transform="translate(-235.665 -243.469)"/>
    <path id="Path_352" data-name="Path 352" d="M274.659,298.816l-2.1-2.106a.14.14,0,0,0-.194.194l2.1,2.105a.14.14,0,0,0,.194-.194" transform="translate(-234.749 -246.932)" fill="#fffa00"/>
    <path id="Path_353" data-name="Path 353" d="M274.324,298.876h0a.147.147,0,0,1-.105-.042l-2.1-2.106a.171.171,0,0,1,.017-.24.175.175,0,0,1,.24-.016l2.1,2.106a.145.145,0,0,1,.042.1.2.2,0,0,1-.193.193m-2.051-2.358a.105.105,0,0,0-.073.033.086.086,0,0,0-.017.115l2.1,2.106a.061.061,0,0,0,.043.016.113.113,0,0,0,.105-.106.059.059,0,0,0-.016-.042l-2.1-2.106a.06.06,0,0,0-.043-.016" transform="translate(-234.534 -246.725)"/>
    <path id="Path_354" data-name="Path 354" d="M278.769,300.613a.766.766,0,0,0,.246-.808.777.777,0,0,0-.82.233Z" transform="translate(-239.617 -249.497)" fill="#fffa00"/>
    <path id="Path_355" data-name="Path 355" d="M278.463,300.459l-.636-.638.031-.031a.891.891,0,0,1,.63-.281.624.624,0,0,1,.246.046h0l.008.008.005.007h0a.57.57,0,0,1,.036.163.876.876,0,0,1-.29.7Zm-.511-.637.51.512a.737.737,0,0,0,.213-.711.718.718,0,0,0-.723.2" transform="translate(-239.311 -249.281)"/>
    <path id="Path_356" data-name="Path 356" d="M281.551,292.373l-2.011-2.019a.125.125,0,0,0-.175.175l2.011,2.019a.117.117,0,0,0,.165-.01.118.118,0,0,0,.01-.165" transform="translate(-240.565 -241.648)" fill="#fffa00"/>
    <path id="Path_357" data-name="Path 357" d="M281.234,292.414h0a.146.146,0,0,1-.1-.042l-2.011-2.019a.161.161,0,0,1,.011-.226.166.166,0,0,1,.227-.01l2.011,2.019a.161.161,0,0,1-.011.227.175.175,0,0,1-.122.052m-1.982-2.252a.086.086,0,0,0-.06.026.075.075,0,0,0-.01.1l2.011,2.019a.076.076,0,0,0,.1-.01.075.075,0,0,0,.01-.1l-2.011-2.018a.058.058,0,0,0-.042-.016" transform="translate(-240.35 -241.442)"/>
    <path id="Path_358" data-name="Path 358" d="M280.7,293.606l-1.923-1.931a.125.125,0,0,0-.175.174l1.923,1.931a.125.125,0,0,0,.175-.174" transform="translate(-239.931 -242.748)" fill="#fffa00"/>
    <path id="Path_359" data-name="Path 359" d="M280.376,293.645h0a.137.137,0,0,1-.1-.04l-1.923-1.931a.159.159,0,0,1,.014-.223.164.164,0,0,1,.223-.013l1.923,1.931a.139.139,0,0,1,.04.1.182.182,0,0,1-.177.177m-1.885-2.159a.089.089,0,0,0-.062.027.073.073,0,0,0-.014.1l1.923,1.93a.052.052,0,0,0,.037.014.095.095,0,0,0,.089-.089.052.052,0,0,0-.014-.037l-1.923-1.931a.053.053,0,0,0-.037-.014" transform="translate(-239.716 -242.542)"/>
    <path id="Path_360" data-name="Path 360" d="M290.553,288.39l-.152-.152-.108.108-.111-.111.111-.11-.156-.156-.11.11-.111-.112.111-.11-.156-.156-.25.249a.092.092,0,0,0,0,.132l.546.548a.1.1,0,0,0,.136.006l.248-.246h0Z" transform="translate(-249.091 -239.466)" fill="#fffa00"/>
    <path id="Path_361" data-name="Path 361" d="M290.026,288.4h0a.148.148,0,0,1-.105-.043l-.546-.548a.135.135,0,0,1,0-.195l.281-.28.218.218-.111.11.049.05.11-.11.218.217-.111.11.049.049.108-.108.183.183.014.028-.014.034-.248.246a.131.131,0,0,1-.093.037m-.374-.942-.219.218a.048.048,0,0,0,0,.071l.546.548c.016.016.042.038.074.006l.217-.216-.091-.089-.109.108-.173-.173.111-.11-.094-.094-.11.11-.173-.174.111-.11Z" transform="translate(-248.874 -239.161)"/>
    <path id="Path_362" data-name="Path 362" d="M285.792,290.358l-.836.764.535.533.767-.834Z" transform="translate(-245.237 -241.675)" fill="#fffa00"/>
    <path id="Path_363" data-name="Path 363" d="M285.18,291.419l-.6-.6.9-.823.525.522Zm-.472-.595.47.468.707-.769-.406-.4Z" transform="translate(-244.925 -241.376)"/>
    <path id="Path_364" data-name="Path 364" d="M289.35,296.415l-.449.414.51.513.418-.445-.48-.482Z" transform="translate(-248.516 -246.71)" fill="#fffa00"/>
    <path id="Path_365" data-name="Path 365" d="M289.1,297.106l-.574-.577.513-.474.54.542Zm-.448-.575.446.449.358-.381-.42-.422Z" transform="translate(-248.205 -246.411)"/>
    <path id="Path_366" data-name="Path 366" d="M281.57,288.6l-.448.414.51.513.418-.445-.48-.482h0Z" transform="translate(-242.05 -240.218)" fill="#fffa00"/>
    <path id="Path_367" data-name="Path 367" d="M281.322,289.3l-.575-.577.513-.474.54.542Zm-.448-.575.446.448.358-.381-.42-.422Z" transform="translate(-241.738 -239.919)"/>
    <path id="Path_368" data-name="Path 368" d="M292.16,294.66l-.149-.148-.108.108-.109-.109.111-.111-.153-.152-.11.11-.109-.109.111-.111-.153-.152-.25.249a.091.091,0,0,0,0,.131l.534.537a.1.1,0,0,0,.135,0l.248-.246Z" transform="translate(-250.439 -244.691)" fill="#fffa00"/>
    <path id="Path_369" data-name="Path 369" d="M291.632,294.67a.146.146,0,0,1-.1-.042l-.534-.537a.133.133,0,0,1,0-.193l.281-.28.215.215-.111.111.047.047.11-.11.215.214-.111.111.047.047.108-.108.2.2-.018.045-.247.246a.132.132,0,0,1-.094.038m-.358-.928-.218.218a.047.047,0,0,0,0,.069l.534.536a.045.045,0,0,0,.073,0l.216-.215-.087-.087-.109.108-.17-.171.111-.111-.091-.09-.111.11-.171-.171.111-.111Z" transform="translate(-250.222 -244.385)"/>
    <path id="Path_370" data-name="Path 370" d="M284.381,286.851l-.149-.149-.108.108-.108-.109.111-.111-.153-.152-.111.11-.109-.109.111-.11-.153-.152-.25.249a.09.09,0,0,0,0,.131l.534.537a.1.1,0,0,0,.135,0l.247-.246h0Z" transform="translate(-243.973 -238.199)" fill="#fffa00"/>
    <path id="Path_371" data-name="Path 371" d="M283.855,286.859a.146.146,0,0,1-.1-.042l-.534-.537a.14.14,0,0,1-.042-.1.133.133,0,0,1,.04-.094l.281-.28.215.215-.111.11.047.047.11-.11.215.214-.111.11.047.047.108-.108.211.211-.279.277a.131.131,0,0,1-.094.037m-.359-.927-.219.218a.044.044,0,0,0-.014.032.054.054,0,0,0,.016.037l.534.536a.045.045,0,0,0,.073,0l.216-.215-.087-.087-.108.108-.17-.171.111-.111-.091-.09-.111.11-.171-.171.111-.11Z" transform="translate(-243.757 -237.894)"/>
    <path id="Path_372" data-name="Path 372" d="M288.62,292.875a.076.076,0,1,0-.107-.108l-.191.19.107.108Z" transform="translate(-248.035 -243.656)"/>
    <path id="Path_373" data-name="Path 373" d="M291.123,298.458a.073.073,0,1,0-.1-.1l-.148.147.1.1.147-.147" transform="translate(-250.155 -248.3)"/>
    <path id="Path_374" data-name="Path 374" d="M283.321,290.625a.073.073,0,1,0-.1-.1l-.148.147.1.1Z" transform="translate(-243.67 -241.79)"/>
    <path id="Path_375" data-name="Path 375" d="M242.132,248.784h0a1.464,1.464,0,0,0,.389,1,1.248,1.248,0,0,0,1.86,0,1.462,1.462,0,0,0,.385-1l0-1.888-2.629,0,0,1.888" transform="translate(-209.641 -205.548)" fill="#003296"/>
    <path id="Path_376" data-name="Path 376" d="M244.409,249.61a.261.261,0,1,1-.26.261.261.261,0,0,1,.26-.261" transform="translate(-211.318 -207.805)" fill="#fff"/>
    <path id="Path_377" data-name="Path 377" d="M253.053,249.6a.261.261,0,1,1-.26.261.261.261,0,0,1,.26-.261" transform="translate(-218.503 -207.8)" fill="#fff"/>
    <path id="Path_378" data-name="Path 378" d="M248.729,253.761a.261.261,0,1,1-.26.261.26.26,0,0,1,.26-.261" transform="translate(-214.908 -211.256)" fill="#fff"/>
    <path id="Path_379" data-name="Path 379" d="M244.422,258.112a.261.261,0,1,1-.26.261.26.26,0,0,1,.26-.261" transform="translate(-211.328 -214.872)" fill="#fff"/>
    <path id="Path_380" data-name="Path 380" d="M253.056,258.086a.261.261,0,1,1-.26.261.261.261,0,0,1,.26-.261" transform="translate(-218.505 -214.851)" fill="#fff"/>
    <path id="Path_381" data-name="Path 381" d="M242.089,221.75h0a1.462,1.462,0,0,0,.389,1,1.248,1.248,0,0,0,1.86,0,1.463,1.463,0,0,0,.385-1l0-1.889-2.629,0,0,1.888" transform="translate(-209.605 -183.077)" fill="#003296"/>
    <path id="Path_382" data-name="Path 382" d="M244.366,222.579a.261.261,0,1,1-.26.261.26.26,0,0,1,.26-.261" transform="translate(-211.282 -185.337)" fill="#fff"/>
    <path id="Path_383" data-name="Path 383" d="M253.01,222.572a.261.261,0,1,1-.26.261.261.261,0,0,1,.26-.261" transform="translate(-218.467 -185.331)" fill="#fff"/>
    <path id="Path_384" data-name="Path 384" d="M248.686,226.728a.261.261,0,1,1-.26.261.261.261,0,0,1,.26-.261" transform="translate(-214.873 -188.786)" fill="#fff"/>
    <path id="Path_385" data-name="Path 385" d="M244.379,231.079a.261.261,0,1,1-.26.261.261.261,0,0,1,.26-.261" transform="translate(-211.293 -192.402)" fill="#fff"/>
    <path id="Path_386" data-name="Path 386" d="M253.013,231.054a.261.261,0,1,1-.26.261.261.261,0,0,1,.26-.261" transform="translate(-218.469 -192.382)" fill="#fff"/>
    <path id="Path_387" data-name="Path 387" d="M220.52,248.818h0a1.462,1.462,0,0,0,.39,1,1.248,1.248,0,0,0,1.86,0,1.463,1.463,0,0,0,.384-1l0-1.888-2.629,0,0,1.888" transform="translate(-191.677 -205.576)" fill="#003296"/>
    <path id="Path_388" data-name="Path 388" d="M222.8,249.645a.261.261,0,1,1-.26.261.261.261,0,0,1,.26-.261" transform="translate(-193.354 -207.835)" fill="#fff"/>
    <path id="Path_389" data-name="Path 389" d="M231.441,249.638a.261.261,0,1,1-.26.261.261.261,0,0,1,.26-.261" transform="translate(-200.538 -207.829)" fill="#fff"/>
    <path id="Path_390" data-name="Path 390" d="M227.118,253.794a.261.261,0,1,1-.26.261.261.261,0,0,1,.26-.261" transform="translate(-196.945 -211.283)" fill="#fff"/>
    <path id="Path_391" data-name="Path 391" d="M222.811,258.146a.261.261,0,1,1-.26.261.261.261,0,0,1,.26-.261" transform="translate(-193.365 -214.901)" fill="#fff"/>
    <path id="Path_392" data-name="Path 392" d="M231.444,258.121a.261.261,0,1,1-.26.261.261.261,0,0,1,.26-.261" transform="translate(-200.541 -214.88)" fill="#fff"/>
    <path id="Path_393" data-name="Path 393" d="M263.687,248.749h0a1.463,1.463,0,0,0,.39,1,1.248,1.248,0,0,0,1.86,0,1.463,1.463,0,0,0,.385-1l0-1.889-2.629,0,0,1.888" transform="translate(-227.558 -205.519)" fill="#003296"/>
    <path id="Path_394" data-name="Path 394" d="M265.964,249.576a.261.261,0,1,1-.26.261.261.261,0,0,1,.26-.261" transform="translate(-229.234 -207.777)" fill="#fff"/>
    <path id="Path_395" data-name="Path 395" d="M274.608,249.57a.261.261,0,1,1-.26.261.261.261,0,0,1,.26-.261" transform="translate(-236.419 -207.772)" fill="#fff"/>
    <path id="Path_396" data-name="Path 396" d="M270.285,253.726a.261.261,0,1,1-.26.261.261.261,0,0,1,.26-.261" transform="translate(-232.826 -211.227)" fill="#fff"/>
    <path id="Path_397" data-name="Path 397" d="M265.979,258.078a.261.261,0,1,1-.26.261.261.261,0,0,1,.26-.261" transform="translate(-229.247 -214.844)" fill="#fff"/>
    <path id="Path_398" data-name="Path 398" d="M274.612,258.052a.261.261,0,1,1-.26.261.261.261,0,0,1,.26-.261" transform="translate(-236.423 -214.823)" fill="#fff"/>
    <path id="Path_399" data-name="Path 399" d="M242.174,275.573h0a1.463,1.463,0,0,0,.389,1,1.247,1.247,0,0,0,1.86,0,1.462,1.462,0,0,0,.385-1l0-1.889-2.629,0,0,1.888" transform="translate(-209.676 -227.815)" fill="#003296"/>
    <path id="Path_400" data-name="Path 400" d="M244.451,276.4a.261.261,0,1,1-.26.261.261.261,0,0,1,.26-.261" transform="translate(-211.353 -230.075)" fill="#fff"/>
    <path id="Path_401" data-name="Path 401" d="M253.1,276.4a.261.261,0,1,1-.26.261.26.26,0,0,1,.26-.261" transform="translate(-218.538 -230.07)" fill="#fff"/>
    <path id="Path_402" data-name="Path 402" d="M248.771,280.552a.261.261,0,1,1-.26.261.261.261,0,0,1,.26-.261" transform="translate(-214.943 -233.525)" fill="#fff"/>
    <path id="Path_403" data-name="Path 403" d="M244.465,284.9a.261.261,0,1,1-.26.261.261.261,0,0,1,.26-.261" transform="translate(-211.364 -237.141)" fill="#fff"/>
    <path id="Path_404" data-name="Path 404" d="M253.1,284.878a.261.261,0,1,1-.26.261.261.261,0,0,1,.26-.261" transform="translate(-218.541 -237.121)" fill="#fff"/>
  </g>
</svg>
