<svg xmlns="http://www.w3.org/2000/svg" xmlns:xlink="http://www.w3.org/1999/xlink" width="87.931" height="87.931" viewBox="0 0 87.931 87.931">
  <defs>
    <clipPath id="clip-path">
      <rect id="Rectangle_32" data-name="Rectangle 32" width="87.931" height="87.931" fill="none"/>
    </clipPath>
  </defs>
  <g id="Group_48" data-name="Group 48" transform="translate(0)">
    <g id="Group_22" data-name="Group 22" transform="translate(0)" clip-path="url(#clip-path)">
      <path id="Path_86" data-name="Path 86" d="M73.86,17.861H3.13a43.942,43.942,0,0,1,70.73,0" transform="translate(5.471)" fill="#d00"/>
      <path id="Path_87" data-name="Path 87" d="M73.86,25.5A43.8,43.8,0,0,1,38.495,43.361,43.8,43.8,0,0,1,3.13,25.5Z" transform="translate(5.471 44.57)" fill="#d00"/>
      <path id="Path_88" data-name="Path 88" d="M87.931,32.6a43.989,43.989,0,0,1-8.546,26.1H8.546a44.143,44.143,0,0,1,0-52.209h70.84a43.989,43.989,0,0,1,8.546,26.1" transform="translate(0 11.361)" fill="#ffce00"/>
      <path id="Path_89" data-name="Path 89" d="M2.76,24.99c.33.467.659.934,1.017,1.4H3.722c-.33-.467-.659-.934-.962-1.4" transform="translate(4.824 43.679)" fill="#d00"/>
      <path id="Path_90" data-name="Path 90" d="M3.722,6.5h.055c-.357.467-.687.934-1.017,1.4.3-.467.632-.934.962-1.4" transform="translate(4.824 11.361)" fill="#d00"/>
      <rect id="Rectangle_16" data-name="Rectangle 16" width="4.122" height="19.235" transform="translate(13.618 40.885)" fill="#fffae6"/>
      <rect id="Rectangle_17" data-name="Rectangle 17" width="6.87" height="1.374" transform="translate(12.244 39.511)" fill="#c89c22"/>
      <rect id="Rectangle_18" data-name="Rectangle 18" width="4.122" height="1.374" transform="translate(13.618 40.885)" fill="#b58818"/>
      <rect id="Rectangle_19" data-name="Rectangle 19" width="6.87" height="1.374" transform="translate(12.244 61.494)" fill="#c89c22"/>
      <path id="Path_91" data-name="Path 91" d="M7.19,14.138V36.756l.184.311c.14.239,3.572,5.834,12.907,5.878h.008c9.332-.044,12.764-5.639,12.907-5.878l.184-.311V14.138ZM32.069,27.231V36.4s-2.3,3.8-8.441,4.916a5.007,5.007,0,0,1-3.344-3.608,5,5,0,0,1-3.341,3.608C10.8,40.2,8.5,36.4,8.5,36.4V15.446H32.069Z" transform="translate(12.567 24.711)" fill="#1e1d1b"/>
      <rect id="Rectangle_20" data-name="Rectangle 20" width="4.122" height="1.374" transform="translate(13.618 60.12)" fill="#b58818"/>
      <rect id="Rectangle_21" data-name="Rectangle 21" width="6.9" height="4.127" transform="translate(12.242 62.634)" fill="#fffae6"/>
      <path id="Path_92" data-name="Path 92" d="M11.355,23.3v.824l-.4.415-.335-.343-.242-.247a.269.269,0,0,0-.343,0,1.377,1.377,0,0,1-1.956,0,.269.269,0,0,0-.343,0,1.373,1.373,0,0,1-1.954,0,.273.273,0,0,0-.346,0l-.242.247-.332.343-.4-.415V23.3l.173-.176a.965.965,0,0,1,.22-.179,1.322,1.322,0,0,1,1.517,0,1.014,1.014,0,0,1,.217.179.249.249,0,0,0,.346,0,.965.965,0,0,1,.22-.179,1.323,1.323,0,0,1,1.517,0,1.014,1.014,0,0,1,.217.179.249.249,0,0,0,.346,0,1.014,1.014,0,0,1,.217-.179,1.327,1.327,0,0,1,1.52,0,1.014,1.014,0,0,1,.217.179Z" transform="translate(7.787 39.687)" fill="#194886"/>
      <path id="Path_93" data-name="Path 93" d="M11.355,23.814v.838L11,25.017l-.044.047-.577-.591a.245.245,0,0,0-.343,0,1.357,1.357,0,0,1-1.956,0,.245.245,0,0,0-.343,0,1.354,1.354,0,0,1-1.954,0,.249.249,0,0,0-.346,0l-.574.591-.047-.047-.357-.365v-.838l.173-.176a.594.594,0,0,1,.126-.107,1.07,1.07,0,0,1,.437-.236,1.318,1.318,0,0,1,1.39.343.249.249,0,0,0,.346,0,1.354,1.354,0,0,1,1.954,0,.249.249,0,0,0,.346,0,1.318,1.318,0,0,1,1.39-.343,1.116,1.116,0,0,1,.437.236.533.533,0,0,1,.126.107Z" transform="translate(7.787 40.588)" fill="#194886"/>
      <path id="Path_94" data-name="Path 94" d="M11.355,24.372V25.2H10.55l-.173-.176a.269.269,0,0,0-.343,0,.952.952,0,0,1-.22.176,1.361,1.361,0,0,1-1.517,0,1.084,1.084,0,0,1-.22-.176.269.269,0,0,0-.343,0,.952.952,0,0,1-.22.176A1.361,1.361,0,0,1,6,25.2a1,1,0,0,1-.217-.176.273.273,0,0,0-.346,0L5.26,25.2H4.455v-.824l.173-.176a1.094,1.094,0,0,1,.184-.154,1.321,1.321,0,0,1,.22-.129,1.338,1.338,0,0,1,1.55.283.249.249,0,0,0,.346,0,1.354,1.354,0,0,1,1.954,0,.249.249,0,0,0,.346,0,1.342,1.342,0,0,1,1.553-.283,1.414,1.414,0,0,1,.217.129,1.094,1.094,0,0,1,.184.154Z" transform="translate(7.787 41.563)" fill="#194886"/>
      <rect id="Rectangle_22" data-name="Rectangle 22" width="12.365" height="12.365" transform="translate(32.853 39.511)" fill="#c3c3c3"/>
      <rect id="Rectangle_23" data-name="Rectangle 23" width="12.365" height="12.365" transform="translate(20.488 39.511)" fill="#b3002b"/>
      <path id="Path_95" data-name="Path 95" d="M19.821,18.879V33.992C10.7,33.937,7.456,28.5,7.456,28.5V18.879Z" transform="translate(13.032 32.998)" fill="#b3002b"/>
      <path id="Path_96" data-name="Path 96" d="M24.321,18.879V28.5s-3.242,5.441-12.365,5.5V18.879Z" transform="translate(20.897 32.998)" fill="#b3002b"/>
      <path id="Path_97" data-name="Path 97" d="M20.947,27a5.537,5.537,0,0,1-5.5-4.122A5.537,5.537,0,0,1,9.956,27Z" transform="translate(17.402 39.989)" fill="#6e5d26"/>
      <path id="Path_98" data-name="Path 98" d="M21.078,16.914a9.54,9.54,0,0,0-4.122.467v4.287a1.62,1.62,0,0,1,.22-.11,6.783,6.783,0,0,1,6.65.852l2.748-3.16s-.879-1.814-5.5-2.336" transform="translate(29.637 29.467)" fill="#b3002b"/>
      <path id="Path_99" data-name="Path 99" d="M8.454,21.127A4.765,4.765,0,0,0,11.383,18.9a1.767,1.767,0,0,0,.165-.522v4.259a5.942,5.942,0,0,1-2.064,1.237C5.052,25.551,4.329,27.5,4.329,27.5V23.9a8.717,8.717,0,0,1,4.125-2.775" transform="translate(7.566 32.124)" fill="#b3002b"/>
      <path id="Path_100" data-name="Path 100" d="M8.952,16.914a9.54,9.54,0,0,1,4.122.467v4.287a1.62,1.62,0,0,0-.22-.11,6.783,6.783,0,0,0-6.65.852L3.456,19.25s.879-1.814,5.5-2.336" transform="translate(6.041 29.467)" fill="#b3002b"/>
      <path id="Path_101" data-name="Path 101" d="M11.326,14.69c0,.673-.539,1-1.374,1.379-.574.258-1.289,1.368-2.061,1.368S6.4,16.325,5.819,16.064c-.827-.376-1.363-.7-1.363-1.374,0-1.138,1.539-2.061,3.435-2.061s3.435.923,3.435,2.061" transform="translate(7.788 22.074)" fill="#b3002b"/>
      <rect id="Rectangle_24" data-name="Rectangle 24" width="4.122" height="1.374" transform="translate(13.618 38.137)" fill="#c89c22"/>
      <path id="Path_102" data-name="Path 102" d="M6.83,17.875V13.066a.687.687,0,1,0-1.374,0v4.809Z" transform="translate(9.536 21.637)" fill="#c89c22"/>
      <rect id="Rectangle_25" data-name="Rectangle 25" width="4.122" height="19.235" transform="translate(47.966 40.885)" fill="#fffae6"/>
      <rect id="Rectangle_26" data-name="Rectangle 26" width="6.87" height="1.374" transform="translate(46.593 39.511)" fill="#c89c22"/>
      <rect id="Rectangle_27" data-name="Rectangle 27" width="4.122" height="1.374" transform="translate(47.966 40.885)" fill="#b58818"/>
      <rect id="Rectangle_28" data-name="Rectangle 28" width="6.87" height="1.374" transform="translate(46.593 61.494)" fill="#c89c22"/>
      <rect id="Rectangle_29" data-name="Rectangle 29" width="4.122" height="1.374" transform="translate(47.966 60.12)" fill="#b58818"/>
      <rect id="Rectangle_30" data-name="Rectangle 30" width="6.9" height="4.127" transform="translate(46.562 62.634)" fill="#fffae6"/>
      <path id="Path_103" data-name="Path 103" d="M16.945,23.3v.824l.4.415.335-.343.242-.247a.269.269,0,0,1,.343,0,1.373,1.373,0,0,0,1.954,0,.273.273,0,0,1,.346,0,1.373,1.373,0,0,0,1.954,0,.273.273,0,0,1,.346,0l.242.247.332.343.4-.415V23.3l-.173-.176a.965.965,0,0,0-.22-.179,1.323,1.323,0,0,0-1.517,0,1.1,1.1,0,0,0-.22.179.246.246,0,0,1-.343,0,.965.965,0,0,0-.22-.179,1.323,1.323,0,0,0-1.517,0,1.014,1.014,0,0,0-.217.179.249.249,0,0,1-.346,0,1.014,1.014,0,0,0-.217-.179,1.327,1.327,0,0,0-1.52,0,1.015,1.015,0,0,0-.217.179Z" transform="translate(29.617 39.687)" fill="#194886"/>
      <path id="Path_104" data-name="Path 104" d="M16.945,23.814v.838l.357.365.044.047.577-.591a.245.245,0,0,1,.343,0,1.354,1.354,0,0,0,1.954,0,.249.249,0,0,1,.346,0,1.354,1.354,0,0,0,1.954,0,.249.249,0,0,1,.346,0l.574.591.047-.047.357-.365v-.838l-.173-.176a.594.594,0,0,0-.126-.107,1.07,1.07,0,0,0-.437-.236,1.324,1.324,0,0,0-1.393.343.246.246,0,0,1-.343,0,1.354,1.354,0,0,0-1.954,0,.249.249,0,0,1-.346,0,1.318,1.318,0,0,0-1.39-.343,1.116,1.116,0,0,0-.437.236.533.533,0,0,0-.126.107Z" transform="translate(29.617 40.588)" fill="#194886"/>
      <path id="Path_105" data-name="Path 105" d="M16.945,24.372V25.2h.805l.173-.176a.269.269,0,0,1,.343,0,.952.952,0,0,0,.22.176A1.361,1.361,0,0,0,20,25.2a1,1,0,0,0,.217-.176.273.273,0,0,1,.346,0,.952.952,0,0,0,.22.176,1.361,1.361,0,0,0,1.517,0,1,1,0,0,0,.217-.176.273.273,0,0,1,.346,0l.173.176h.805v-.824l-.173-.176a1.094,1.094,0,0,0-.184-.154,1.321,1.321,0,0,0-.22-.129,1.343,1.343,0,0,0-1.553.283.245.245,0,0,1-.343,0,1.354,1.354,0,0,0-1.954,0,.249.249,0,0,1-.346,0,1.343,1.343,0,0,0-1.553-.283,1.414,1.414,0,0,0-.217.129,1.1,1.1,0,0,0-.184.154Z" transform="translate(29.617 41.563)" fill="#194886"/>
      <path id="Path_106" data-name="Path 106" d="M21.078,16.914a9.54,9.54,0,0,0-4.122.467v4.287a1.62,1.62,0,0,1,.22-.11,6.783,6.783,0,0,1,6.65.852l2.748-3.16s-.879-1.814-5.5-2.336" transform="translate(29.637 29.467)" fill="#b3002b"/>
      <path id="Path_107" data-name="Path 107" d="M16.956,14.69c0,.673.539,1,1.374,1.379.574.258,1.289,1.368,2.061,1.368s1.495-1.113,2.072-1.374c.827-.376,1.363-.7,1.363-1.374,0-1.138-1.539-2.061-3.435-2.061s-3.435.923-3.435,2.061" transform="translate(29.637 22.074)" fill="#b3002b"/>
      <rect id="Rectangle_31" data-name="Rectangle 31" width="4.122" height="1.374" transform="translate(47.966 38.137)" fill="#c89c22"/>
      <path id="Path_108" data-name="Path 108" d="M17.956,17.875V13.066a.687.687,0,1,1,1.374,0v4.809Z" transform="translate(31.384 21.637)" fill="#c89c22"/>
      <path id="Path_109" data-name="Path 109" d="M16.387,8.645a3.41,3.41,0,0,0-3.2,2.286,3.432,3.432,0,1,0,.912,3.668,3.392,3.392,0,0,0,2.292.915,3.435,3.435,0,1,0,0-6.87m-5.5,6.87a2.061,2.061,0,1,1,2.061-2.061,2.062,2.062,0,0,1-2.061,2.061m5.5-1.374a2.061,2.061,0,1,1,2.061-2.061,2.062,2.062,0,0,1-2.061,2.061" transform="translate(13.032 15.11)" fill="#c89c22"/>
      <path id="Path_110" data-name="Path 110" d="M11.956,12.08a3.436,3.436,0,0,0,3.435,3.435,3.392,3.392,0,0,0,2.292-.915,3.441,3.441,0,1,0,.912-3.668,3.415,3.415,0,0,0-6.639,1.149m6.87,1.374a2.061,2.061,0,1,1,2.061,2.061,2.062,2.062,0,0,1-2.061-2.061m-5.5-1.374a2.061,2.061,0,1,1,2.061,2.061A2.062,2.062,0,0,1,13.33,12.08" transform="translate(20.897 15.11)" fill="#c89c22"/>
      <path id="Path_111" data-name="Path 111" d="M27.378,11.019a8.1,8.1,0,0,0-1.794.2,9.8,9.8,0,0,0-5.762-1.575,9.8,9.8,0,0,0-5.762,1.575,8.1,8.1,0,0,0-1.794-.2c-2.657,0-4.809,1.231-4.809,2.748s2.152,2.748,4.809,2.748a7.037,7.037,0,0,0,3.3-.758,11.65,11.65,0,0,0,4.256.758,11.65,11.65,0,0,0,4.256-.758,7.037,7.037,0,0,0,3.3.758c2.654,0,4.809-1.231,4.809-2.748s-2.154-2.748-4.809-2.748" transform="translate(13.032 16.858)" fill="#b3002b"/>
      <path id="Path_112" data-name="Path 112" d="M27.6,12.55l-1.9,2.363-.8.989-4.946-.467a22.482,22.482,0,0,0-3.847,0l-4.946.467-.8-.989-1.9-2.363a5.176,5.176,0,0,0,3.023.687,1.95,1.95,0,0,0,1.484-1.594,3.675,3.675,0,0,0,2.83,1.4c1.154,0,2.226-1.9,2.226-1.9s1.072,1.9,2.226,1.9a3.675,3.675,0,0,0,2.83-1.4,1.95,1.95,0,0,0,1.484,1.594A5.176,5.176,0,0,0,27.6,12.55" transform="translate(14.815 19.487)" fill="#c89c22"/>
      <path id="Path_113" data-name="Path 113" d="M13.095,15.93l.014-7.864a.687.687,0,1,0-1.374,0l-.014,7.864Z" transform="translate(20.487 12.897)" fill="#c89c22"/>
      <path id="Path_114" data-name="Path 114" d="M14.224,9.253A1.374,1.374,0,1,1,12.85,7.879a1.374,1.374,0,0,1,1.374,1.374" transform="translate(20.058 13.771)" fill="#194886"/>
      <path id="Path_115" data-name="Path 115" d="M13.114,9.879A1.811,1.811,0,0,1,11.3,11.69,1.811,1.811,0,0,1,13.114,13.5a1.811,1.811,0,0,1,1.814-1.811,1.811,1.811,0,0,1-1.814-1.811" transform="translate(19.756 17.267)" fill="#fec32d"/>
      <path id="Path_116" data-name="Path 116" d="M10.716,10.265a1.668,1.668,0,0,1-1.289,1.976A1.668,1.668,0,0,1,11.4,13.532a1.67,1.67,0,0,1,1.289-1.978,1.668,1.668,0,0,1-1.976-1.289" transform="translate(16.477 17.942)" fill="#fec32d"/>
      <path id="Path_117" data-name="Path 117" d="M8.111,10.823a1.606,1.606,0,0,1-.321,2.25,1.608,1.608,0,0,1,2.25.319,1.6,1.6,0,0,1,.321-2.248,1.611,1.611,0,0,1-2.25-.321" transform="translate(13.616 18.917)" fill="#fec32d"/>
      <path id="Path_118" data-name="Path 118" d="M15.258,10.228A1.668,1.668,0,0,0,16.546,12.2,1.668,1.668,0,0,0,14.571,13.5a1.67,1.67,0,0,0-1.289-1.978,1.668,1.668,0,0,0,1.976-1.289" transform="translate(23.215 17.877)" fill="#fec32d"/>
      <path id="Path_119" data-name="Path 119" d="M17.42,10.786a1.606,1.606,0,0,0,.321,2.25,1.608,1.608,0,0,0-2.25.319,1.6,1.6,0,0,0-.321-2.248,1.608,1.608,0,0,0,2.25-.321" transform="translate(26.515 18.852)" fill="#fec32d"/>
      <path id="Path_120" data-name="Path 120" d="M24.5,13.638l-.8.989-4.946-.467a22.482,22.482,0,0,0-3.847,0l-4.946.467-.8-.989c1.209-1.044,4.177-1.759,7.666-1.759s6.457.714,7.666,1.759" transform="translate(16.021 20.763)" fill="#fec32d"/>
      <path id="Path_121" data-name="Path 121" d="M23.2,13.753c0,.758-3.075,1.374-6.87,1.374s-6.87-.616-6.87-1.374,3.075-1.374,6.87-1.374,6.87.616,6.87,1.374" transform="translate(16.528 21.637)" fill="#b3002b"/>
      <path id="Path_122" data-name="Path 122" d="M9.83,18.879V32.041a12.974,12.974,0,0,1-1.374-.824V18.879Z" transform="translate(14.78 32.998)" fill="#fec32d"/>
      <path id="Path_123" data-name="Path 123" d="M10.83,18.879V33.2A8.932,8.932,0,0,1,9.456,32.7V18.879Z" transform="translate(16.528 32.998)" fill="#fec32d"/>
      <path id="Path_124" data-name="Path 124" d="M11.83,18.879V33.8a10.183,10.183,0,0,1-1.374-.247V18.879Z" transform="translate(18.276 32.998)" fill="#fec32d"/>
      <path id="Path_125" data-name="Path 125" d="M12.83,18.879V33.992c-.467,0-.934-.027-1.374-.055V18.879Z" transform="translate(20.023 32.998)" fill="#fec32d"/>
      <path id="Path_126" data-name="Path 126" d="M8.83,18.879V30.09A7.575,7.575,0,0,1,7.456,28.5V18.879Z" transform="translate(13.032 32.998)" fill="#fec32d"/>
      <path id="Path_127" data-name="Path 127" d="M22.15,19.4H12.771a.221.221,0,0,0-.234.234v.212l0,4.726V26.05a4.805,4.805,0,0,0,1.1,3.072,4,4,0,0,0,.305.33h.022a4.789,4.789,0,0,0,3.424,1.454h.14a4.842,4.842,0,0,0,3.449-1.454,4.006,4.006,0,0,0,.305-.33,4.821,4.821,0,0,0,1.1-3.072V24.574l0-4.726v-.212a.221.221,0,0,0-.236-.234m-.374.47-3.781,3.91a1.115,1.115,0,0,0-.3-.1l0-3.811Zm-4.548,0,0,3.811a1.134,1.134,0,0,0-.305.1l-3.773-3.91ZM13,20.433l3.556,3.646a1.184,1.184,0,0,0-.228.495H13Zm.937,8.29A4.3,4.3,0,0,1,13,26.05V25.044h3.33a1.173,1.173,0,0,0,.228.492Zm3.281,1.69A4.229,4.229,0,0,1,14.247,29.1l2.674-3.264a1.166,1.166,0,0,0,.305.1v4.479Zm.47,0h0V25.935a1.115,1.115,0,0,0,.3-.1L20.671,29.1a4.235,4.235,0,0,1-2.979,1.313m4.221-4.364a4.314,4.314,0,0,1-.937,2.674l-2.621-3.187a1.141,1.141,0,0,0,.228-.492h3.33Zm0-1.476h-3.33a1.151,1.151,0,0,0-.228-.495l3.561-3.646Z" transform="translate(21.909 33.913)" fill="#fec32d"/>
      <path id="Path_128" data-name="Path 128" d="M15.606,21.866a.782.782,0,1,1-.78-.78.78.78,0,0,1,.78.78" transform="translate(24.543 36.855)" fill="#44752e"/>
      <path id="Path_129" data-name="Path 129" d="M18.7,22.875c0,3.036-1.847,5.5-4.122,5.5s-4.122-2.459-4.122-5.5,1.847-5.5,4.122-5.5,4.122,2.459,4.122,5.5" transform="translate(18.276 30.376)" fill="#c89c22"/>
      <path id="Path_130" data-name="Path 130" d="M16.452,22c0,2.275-1.231,4.122-2.748,4.122S10.956,24.276,10.956,22s1.231-4.122,2.748-4.122S16.452,19.726,16.452,22" transform="translate(19.149 31.25)" fill="#194886"/>
      <path id="Path_131" data-name="Path 131" d="M12.809,19.45a1.374,1.374,0,0,1-1.374,1.374A1.374,1.374,0,0,1,12.809,22.2a1.374,1.374,0,0,1,1.374-1.374,1.374,1.374,0,0,1-1.374-1.374" transform="translate(19.987 33.996)" fill="#fec32d"/>
      <path id="Path_132" data-name="Path 132" d="M12.084,18.634a.987.987,0,0,1-.986.986.988.988,0,0,1,.986.989.988.988,0,0,1,.986-.989.987.987,0,0,1-.986-.986" transform="translate(19.398 32.569)" fill="#fec32d"/>
      <path id="Path_133" data-name="Path 133" d="M12.992,18.634a.987.987,0,0,0,.986.986.988.988,0,0,0-.986.989.988.988,0,0,0-.986-.989.987.987,0,0,0,.986-.986" transform="translate(20.985 32.569)" fill="#fec32d"/>
      <path id="Path_134" data-name="Path 134" d="M14.718,22.777V18.491h.374v-.665H14.4V16.095h.324v-.528h-1.4v.528h.324v1.731H12.316v-2.44h.313v-.533h-1.5v.533h.313v2.44h-1.4V16.095h.324v-.528h-1.4v.528h.321v1.731H8.661v.665h.368v4.287H8.37v.907h7.007v-.907Z" transform="translate(14.629 25.96)" fill="#c89c22"/>
      <path id="Path_135" data-name="Path 135" d="M10.881,17.959v1.594H9.37V17.959a.763.763,0,0,1,.769-.742.739.739,0,0,1,.742.742" transform="translate(16.377 30.093)" fill="#194886"/>
      <path id="Path_136" data-name="Path 136" d="M9.688,16.778v.739h-.7v-.739a.352.352,0,0,1,.357-.343.342.342,0,0,1,.343.343" transform="translate(15.708 28.726)" fill="#194886"/>
      <path id="Path_137" data-name="Path 137" d="M10.032,16.778v.739h.7v-.739a.352.352,0,0,0-.357-.343.342.342,0,0,0-.343.343" transform="translate(17.534 28.726)" fill="#194886"/>
      <path id="Path_138" data-name="Path 138" d="M21.015,16.133c-.1-.151-.206-.3-.308-.451a2.8,2.8,0,0,0-1.206,2.25,8.129,8.129,0,0,0,.267,1.215,1.6,1.6,0,0,1-.115,1.206.3.3,0,0,1-.113.115.346.346,0,0,1-.176.016,2.742,2.742,0,0,1-1.443-.594,1.574,1.574,0,0,1-.558-.769,1.521,1.521,0,0,1,.415-1.41c.346-.379,1-.423,1.261-.866.316-.539-.371-.841-.811-1.121q-.367-.235-.734-.462c-.082-.052-.7-.357-.7-.429q-.371.577-.736,1.154c.294.19.591.376.885.566l-.734.943a.206.206,0,0,1-.08.074.192.192,0,0,1-.118,0,2.456,2.456,0,0,1-1.739-1.27,9.641,9.641,0,0,0-1.107.434c-.2.11-.151.135-.038.332a3.055,3.055,0,0,0,.272.42,3.768,3.768,0,0,0,1.459,1.179c-.638.264-1.278.525-1.915.789l.519,1.27,2.621-1.08a3.856,3.856,0,0,0,.495.8c-.291.066-.58.129-.868.192l-.231,1.253c-.33.019-.657.038-.986.06.03.456.058.912.088,1.371q1.026-.066,2.053-.126.128-.709.261-1.418c.371-.077.739-.157,1.107-.236-.107.2-.217.387-.324.58l.767,1.261c-.124.1-.25.2-.374.3.289.354.58.709.868,1.066q.651-.532,1.3-1.061c-.324-.533-.646-1.063-.97-1.594.308-.783,1.017-1.412,1.1-2.248.08-.789-.423-1.558-.294-2.338a2.454,2.454,0,0,1,.937-1.379" transform="translate(22.621 25.931)" fill="#bf4f9b"/>
      <path id="Path_139" data-name="Path 139" d="M14.672,14.757l-.022,1.2.932.591L16.568,16Z" transform="translate(25.605 25.793)" fill="#a8831b"/>
      <path id="Path_140" data-name="Path 140" d="M20.067,21.045a4.765,4.765,0,0,1-2.929-2.226,1.767,1.767,0,0,1-.165-.522v4.259a5.942,5.942,0,0,0,2.064,1.237c4.432,1.676,5.155,3.627,5.155,3.627v-3.6a8.737,8.737,0,0,0-4.125-2.775" transform="translate(29.666 31.98)" fill="#b3002b"/>
    </g>
  </g>
</svg>
